<svg width="10" height="5" viewBox="0 0 10 5" fill="none" xmlns="http://www.w3.org/2000/svg">
    <path d="M9.6662 0.779973C9.66654 0.879569 9.64456 0.977976 9.60187 1.06796C9.55919 1.15795 9.49688 1.23723 9.41953 1.29997L5.41953 4.51997C5.30024 4.61803 5.15062 4.67163 4.9962 4.67163C4.84178 4.67163 4.69215 4.61803 4.57287 4.51997L0.572866 1.18664C0.436722 1.07348 0.351105 0.910873 0.334852 0.734589C0.318599 0.558304 0.37304 0.382783 0.486199 0.246639C0.599358 0.110495 0.761966 0.024879 0.93825 0.00862551C1.11453 -0.00762749 1.29005 0.0468135 1.4262 0.159973L4.99953 3.13997L8.57287 0.259973C8.67072 0.178451 8.78988 0.126666 8.91625 0.110746C9.04261 0.0948267 9.1709 0.115438 9.28592 0.170142C9.40094 0.224846 9.49788 0.311352 9.56527 0.419426C9.63266 0.527499 9.66769 0.652617 9.6662 0.779973Z" fill="#5B5B5B"/>
</svg>
