<svg width="16" height="16" viewBox="0 0 16 16" fill="none" xmlns="http://www.w3.org/2000/svg">
    <path d="M6.78022 3.33337C6.87981 3.33303 6.97822 3.35502 7.06821 3.3977C7.15819 3.44039 7.23747 3.50269 7.30022 3.58004L10.5202 7.58004C10.6183 7.69933 10.6719 7.84896 10.6719 8.00337C10.6719 8.15779 10.6183 8.30742 10.5202 8.42671L7.18688 12.4267C7.07372 12.5629 6.91112 12.6485 6.73483 12.6647C6.55855 12.681 6.38303 12.6265 6.24688 12.5134C6.11074 12.4002 6.02512 12.2376 6.00887 12.0613C5.99262 11.885 6.04706 11.7095 6.16022 11.5734L9.14022 8.00004L6.26022 4.42671C6.17869 4.32885 6.12691 4.20969 6.11099 4.08332C6.09507 3.95696 6.11568 3.82868 6.17039 3.71366C6.22509 3.59864 6.3116 3.5017 6.41967 3.4343C6.52774 3.36691 6.65286 3.33189 6.78022 3.33337Z" fill="white"/>
</svg>
