<svg width="24" height="25" viewBox="0 0 24 25" fill="none" xmlns="http://www.w3.org/2000/svg">
    <path d="M23.5348 5.40322C23.5332 5.40322 23.5317 5.40322 23.5301 5.40322H21.9531V4.86526C21.9616 4.65233 21.8234 4.46097 21.6181 4.40149C20.5233 4.11547 19.3959 3.97205 18.264 3.97483C16.4032 3.97483 13.8678 4.39222 11.993 6.29365C10.1322 4.37367 7.57821 3.97483 5.72204 3.97483C4.59019 3.97205 3.46276 4.11547 2.3679 4.40149C2.16263 4.46097 2.02446 4.65233 2.03295 4.86526V5.39858H0.465206C0.208296 5.39858 0 5.60623 0 5.86235V20.6749C0 20.9311 0.208296 21.1387 0.465206 21.1387C0.545106 21.1385 0.623609 21.1177 0.693158 21.0784C0.739678 21.0552 5.39174 18.5184 11.886 20.1509H11.9558H11.9977C12.0348 20.1554 12.0722 20.1554 12.1093 20.1509C18.6222 18.5045 23.2743 21.0367 23.3022 21.0784C23.4461 21.1613 23.6235 21.1613 23.7674 21.0784C23.9104 20.9961 23.999 20.8443 24 20.6796V5.86699C24 5.61087 23.7918 5.40322 23.5348 5.40322ZM0.930413 19.9376V6.33075H2.04226V17.9619C2.03935 18.218 2.24526 18.428 2.50217 18.4309C2.52729 18.4312 2.55241 18.4295 2.57724 18.4257C3.53964 18.2792 4.51128 18.2017 5.48478 18.1938C6.8333 18.1705 8.17618 18.3727 9.45765 18.7921C6.56377 18.4432 3.62844 18.8375 0.930413 19.9376ZM5.48478 17.2709C4.63863 17.2728 3.79347 17.327 2.95406 17.4332V5.23163C3.85982 5.03047 4.78476 4.92781 5.71274 4.92555C7.45261 4.92555 9.85307 5.32438 11.5185 7.19799L11.5325 18.7503C10.5648 18.1196 8.6761 17.2709 5.48478 17.2709ZM12.4629 7.19799C14.1283 5.34293 16.5288 4.92555 18.2687 4.92555C19.1966 4.92827 20.1215 5.03088 21.0273 5.23163V17.4332C20.1926 17.326 19.3521 17.2703 18.5106 17.2663C15.3379 17.2663 13.4445 18.115 12.4629 18.7457V7.19799ZM23.0649 19.9376C20.3612 18.8345 17.4191 18.4401 14.5191 18.7921C15.8066 18.3712 17.1559 18.1689 18.5106 18.1938C19.4902 18.1993 20.4681 18.2752 21.4367 18.4211C21.6907 18.4595 21.9279 18.2853 21.9665 18.0321C21.9702 18.0074 21.972 17.9823 21.9717 17.9573V6.33075H23.0835L23.0649 19.9376Z" fill="#EA9516"/>
</svg>
