<svg width="7" height="7" viewBox="0 0 7 7" fill="none" xmlns="http://www.w3.org/2000/svg">
    <path d="M3.65972 6.08604C3.47592 6.3355 3.1897 6.48882 2.88023 6.50406C2.57076 6.51945 2.27103 6.39472 2.06367 6.16443L0.205435 4.10229C-0.0898973 3.77475 -0.0636631 3.26986 0.263873 2.97453C0.591723 2.67919 1.0963 2.70559 1.39163 3.03328L2.70633 4.49234C2.72581 4.51402 2.75409 4.52565 2.78315 4.52423C2.81237 4.52282 2.83907 4.50821 2.85651 4.48496L5.5588 0.819859C5.82036 0.464832 6.32022 0.389271 6.67541 0.650985C7.03028 0.9127 7.10568 1.41256 6.84397 1.76743L3.65972 6.08604Z" fill="white"/>
</svg>
