<svg width="34" height="34" viewBox="0 0 34 34" fill="none" xmlns="http://www.w3.org/2000/svg">
    <path d="M31.8124 13.7135C31.4147 13.3917 30.753 12.855 30.6701 12.6007C30.5859 12.3365 30.8036 11.4865 30.9343 10.9807C31.2476 9.75978 31.6382 8.24094 30.7629 7.04529C29.8918 5.85808 28.3252 5.75409 27.0663 5.66976C26.545 5.63323 25.6711 5.57559 25.4505 5.41542C25.2271 5.25385 24.8913 4.4263 24.6904 3.93031C24.1945 2.70093 23.6297 1.30713 22.2513 0.863138C20.8801 0.414962 19.6268 1.20878 18.5238 1.90704C18.0377 2.21331 17.3057 2.67702 16.9994 2.67702C16.7058 2.67702 15.9822 2.20634 15.5017 1.89443C14.4409 1.20453 13.1146 0.350283 11.7166 0.82522C10.341 1.29312 9.78191 2.67842 9.28592 3.89797C9.08643 4.38971 8.7548 5.21022 8.52723 5.37744C8.30523 5.54179 7.41585 5.60083 6.88473 5.63595C5.55701 5.72587 4.05224 5.82707 3.20643 7.02411C2.37608 8.2001 2.74836 9.65008 3.07713 10.9301C3.20643 11.4387 3.42557 12.2901 3.34688 12.5444C3.26261 12.7874 2.60784 13.3256 2.21724 13.6473C1.22938 14.4624 0 15.4754 0 16.9928C0 18.5004 1.20554 19.5022 2.17354 20.3058C2.59363 20.6543 3.22728 21.1811 3.31301 21.4425C3.39728 21.701 3.17814 22.5412 3.04605 23.0428C2.72571 24.275 2.32528 25.8093 3.23432 27.0148C4.12091 28.1866 5.68046 28.2905 6.93514 28.3749C7.45643 28.4114 8.32894 28.4676 8.55093 28.6292C8.77293 28.7908 9.10735 29.6169 9.30823 30.1129C9.80561 31.3423 10.369 32.7361 11.7487 33.1815C12.0255 33.2728 12.2995 33.3122 12.5665 33.3122C13.623 33.3122 14.5981 32.694 15.4776 32.1404C15.9623 31.8341 16.693 31.3704 16.9993 31.3704C17.2986 31.3704 18.0179 31.8284 18.4928 32.1319C19.5465 32.8021 20.8617 33.6423 22.2569 33.1646C23.6309 32.6967 24.1901 31.3128 24.6861 30.0905C24.8856 29.6001 25.2172 28.7782 25.4448 28.611C25.6682 28.4466 26.5519 28.3876 27.0803 28.3525C28.3982 28.2626 29.8931 28.1628 30.7516 26.984C31.6157 25.7995 31.2447 24.3341 30.9174 23.0429C30.7896 22.5385 30.576 21.6969 30.6533 21.444C30.7375 21.2009 31.3923 20.6628 31.7815 20.341C32.7706 19.5261 34 18.5117 34 16.9942C34 15.4894 32.7861 14.5045 31.8124 13.7135ZM29.9957 18.1745C29.1738 18.8503 28.3237 19.5514 27.9893 20.556C27.6479 21.5788 27.9261 22.6747 28.1944 23.7341C28.3251 24.2512 28.5443 25.1152 28.5148 25.2937C28.3012 25.4538 27.4203 25.5143 26.8934 25.548C25.8495 25.6183 24.6665 25.697 23.7855 26.3432C22.913 26.9825 22.4901 28.0264 22.0812 29.0353C21.8817 29.5326 21.5445 30.3658 21.4054 30.4923C21.1497 30.4923 20.4345 30.0328 20.006 29.7603C19.1223 29.1983 18.1205 28.559 17.0007 28.559C15.8795 28.559 14.8692 29.1997 13.9757 29.7645C13.5429 30.0371 12.8179 30.4979 12.6634 30.5317C12.4457 30.3757 12.114 29.5524 11.9145 29.0606C11.5015 28.0392 11.0744 26.984 10.1934 26.3503C9.31813 25.7195 8.2025 25.645 7.12207 25.5734C6.61486 25.5396 5.6693 25.4764 5.49784 25.3598C5.41072 25.1111 5.63132 24.2611 5.76479 23.7553C6.02471 22.7535 6.32121 21.6183 5.98679 20.5813C5.65097 19.5459 4.7588 18.8026 3.97056 18.1478C3.58561 17.8275 2.86762 17.2304 2.80719 17.014C2.87041 16.7498 3.60805 16.1415 4.00423 15.817C4.82614 15.1398 5.67621 14.4386 6.01063 13.434C6.35488 12.4041 6.07106 11.2998 5.79846 10.232C5.66638 9.71635 5.44438 8.85367 5.46125 8.68931C5.67621 8.53479 6.55011 8.47575 7.0728 8.44062C8.17009 8.36758 9.30677 8.29028 10.1877 7.64541C11.0602 7.00611 11.4832 5.9636 11.892 4.95483C12.0915 4.45605 12.4302 3.62424 12.5594 3.4992C12.8193 3.50338 13.5415 3.97268 13.9729 4.25231C14.8636 4.83118 15.8753 5.48734 17.0007 5.48734C18.1205 5.48734 19.1335 4.84665 20.0243 4.28326C20.457 4.00927 21.182 3.54987 21.3366 3.51613C21.5529 3.67212 21.886 4.49543 22.0855 4.98717C22.4985 6.00723 22.9256 7.06236 23.8066 7.69601C24.6819 8.32826 25.7989 8.40271 26.8808 8.47436C27.4147 8.51088 28.3097 8.57131 28.4769 8.67245C28.5626 8.91974 28.3448 9.77399 28.2127 10.2826C27.9556 11.2886 27.6633 12.4281 27.9991 13.4678C28.3377 14.5145 29.244 15.2493 30.0434 15.897C30.4088 16.1949 31.0818 16.7387 31.1857 17C31.086 17.2739 30.3793 17.8569 29.9957 18.1745Z" fill="#2DDC5E"/>
    <path d="M23.2829 11.7001C22.6843 11.1999 21.8005 11.2814 21.3046 11.8757L15.0396 19.3659L12.3743 16.702C11.8249 16.1526 10.9369 16.1526 10.3876 16.702C9.83824 17.2514 9.83824 18.1394 10.3876 18.6887L14.139 22.4401C14.4017 22.7057 14.7601 22.8518 15.1324 22.8518C15.1521 22.8518 15.1732 22.8518 15.1928 22.849C15.589 22.8321 15.9558 22.6495 16.2087 22.3474L23.4584 13.6783C23.9558 13.0827 23.8786 12.1975 23.2829 11.7001Z" fill="#2DDC5E"/>
</svg>
