<svg width="36" height="35" viewBox="0 0 36 35" fill="none" xmlns="http://www.w3.org/2000/svg">
    <path d="M18.0004 5.70652C18.4308 5.70652 18.783 5.36413 18.783 4.94565V4.56522C18.783 4.14674 18.4308 3.80435 18.0004 3.80435C17.5699 3.80435 17.2178 4.14674 17.2178 4.56522V4.94565C17.2178 5.36413 17.5699 5.70652 18.0004 5.70652Z" fill="#FFB74B"/>
    <path d="M18.0004 29.2935C17.5699 29.2935 17.2178 29.6359 17.2178 30.0544V30.4348C17.2178 30.8533 17.5699 31.1957 18.0004 31.1957C18.4308 31.1957 18.783 30.8533 18.783 30.4348V30.0544C18.783 29.6359 18.4308 29.2935 18.0004 29.2935Z" fill="#FFB74B"/>
    <path d="M5.087 16.7391H4.69569C4.26526 16.7391 3.91309 17.0815 3.91309 17.5C3.91309 17.9185 4.26526 18.2608 4.69569 18.2608H5.087C5.51743 18.2608 5.86961 17.9185 5.86961 17.5C5.86961 17.0815 5.51743 16.7391 5.087 16.7391Z" fill="#FFB74B"/>
    <path d="M31.3038 16.7391H30.9125C30.4821 16.7391 30.1299 17.0815 30.1299 17.5C30.1299 17.9185 30.4821 18.2608 30.9125 18.2608H31.3038C31.7342 18.2608 32.0864 17.9185 32.0864 17.5C32.0864 17.0815 31.7342 16.7391 31.3038 16.7391Z" fill="#FFB74B"/>
    <path d="M9.15661 7.83696C8.84356 7.53262 8.374 7.53262 8.06095 7.83696C7.74791 8.14131 7.74791 8.59783 8.06095 8.90218L8.33487 9.16849C8.49139 9.32066 8.68704 9.39675 8.88269 9.39675C9.07835 9.39675 9.274 9.32066 9.43052 9.16849C9.74356 8.86414 9.74356 8.40762 9.43052 8.10327L9.15661 7.83696Z" fill="#FFB74B"/>
    <path d="M8.33487 25.8316L8.06095 26.0979C7.74791 26.4022 7.74791 26.8587 8.06095 27.1631C8.21748 27.3153 8.41313 27.3914 8.60878 27.3914C8.80443 27.3914 9.00009 27.3153 9.15661 27.1631L9.43052 26.8968C9.74356 26.5924 9.74356 26.1359 9.43052 25.8316C9.11748 25.5272 8.64791 25.5272 8.33487 25.8316Z" fill="#FFB74B"/>
    <path d="M26.8427 7.83696L26.5688 8.10327C26.2557 8.40762 26.2557 8.86414 26.5688 9.16849C26.7253 9.32066 26.9209 9.39675 27.1166 9.39675C27.3123 9.39675 27.5079 9.32066 27.6644 9.16849L27.9383 8.90218C28.2514 8.59783 28.2514 8.14131 27.9383 7.83696C27.6253 7.53262 27.1557 7.53262 26.8427 7.83696Z" fill="#FFB74B"/>
    <path d="M18.783 17.1957V10.2718C18.783 9.85329 18.4308 9.51089 18.0004 9.51089C17.5699 9.51089 17.2178 9.85329 17.2178 10.2718V17.5C17.2178 17.6902 17.296 17.8805 17.4526 18.0326L26.0221 26.3642C26.1786 26.5163 26.3743 26.5924 26.5699 26.5924C26.7656 26.5924 26.9612 26.5163 27.1178 26.3642C27.4308 26.0598 27.4308 25.6033 27.1178 25.2989L18.783 17.1957Z" fill="#FFB74B"/>
    <path d="M18 0C8.06087 0 0 7.83696 0 17.5C0 27.163 8.06087 35 18 35C27.9391 35 36 27.163 36 17.5C36 7.83696 27.9391 0 18 0ZM18 33.4783C8.92174 33.4783 1.56522 26.3261 1.56522 17.5C1.56522 8.67391 8.92174 1.52174 18 1.52174C27.0783 1.52174 34.4348 8.67391 34.4348 17.5C34.4348 26.3261 27.0783 33.4783 18 33.4783Z" fill="#FFB74B"/>
</svg>
