<svg width="34" height="34" viewBox="0 0 34 34" fill="none" xmlns="http://www.w3.org/2000/svg">
    <path d="M17 34C26.3739 34 34 26.3739 34 17C34 7.62614 26.3739 0 17 0C7.62614 0 0 7.62614 0 17C0 26.3739 7.62614 34 17 34ZM17 1.51592C25.5381 1.51592 32.4841 8.46193 32.4841 17C32.4841 25.5381 25.5381 32.4841 17 32.4841C8.46193 32.4841 1.51592 25.5381 1.51592 17C1.51592 8.46193 8.46193 1.51592 17 1.51592Z" fill="#FFB74B"/>
    <path d="M12.8098 15.4722C14.5435 15.4722 15.9486 14.0667 15.9486 12.3334C15.949 10.5996 14.5435 9.19409 12.8098 9.19409C11.076 9.19409 9.6709 10.5996 9.6709 12.333C9.67259 14.0659 11.0768 15.4701 12.8098 15.4722ZM12.8098 10.71C13.706 10.71 14.4327 11.4367 14.4327 12.333C14.4331 13.2296 13.7065 13.9563 12.8098 13.9563C11.9135 13.9563 11.1868 13.2296 11.1868 12.333C11.1877 11.4371 11.9139 10.7113 12.8098 10.71Z" fill="#FFB74B"/>
    <path d="M17.8613 21.8574C17.8613 23.5911 19.2669 24.9962 21.0002 24.9962C22.7339 24.9962 24.1395 23.5911 24.1395 21.8574C24.1395 20.1236 22.7339 18.7181 21.0002 18.7181C19.2673 18.7202 17.8634 20.1245 17.8613 21.8574ZM22.6235 21.8574C22.6235 22.7537 21.8969 23.4803 21.0002 23.4803C20.1039 23.4803 19.3773 22.7537 19.3773 21.8574C19.3773 20.9611 20.1039 20.2345 21.0002 20.234C21.8965 20.2353 22.6223 20.9611 22.6235 21.8574Z" fill="#FFB74B"/>
    <path d="M11.2288 25.8494C11.5795 26.0782 12.0494 25.9792 12.2778 25.6286L22.9924 9.19961C23.1409 8.97247 23.157 8.68358 23.0347 8.44164C22.9121 8.19971 22.6697 8.04152 22.399 8.02713C22.1283 8.01275 21.8703 8.14387 21.7227 8.37143L11.008 24.8004C10.7792 25.1515 10.8782 25.621 11.2288 25.8494Z" fill="#FFB74B"/>
</svg>
