<svg width="51" height="51" viewBox="0 0 51 51" fill="none" xmlns="http://www.w3.org/2000/svg">
    <path d="M6.30078 50.6016V0.398438H33.589L44.0169 10.8247V50.6016H6.30078Z" fill="white"/>
    <path d="M33.4248 0.796875L43.6184 10.9905V50.2031H6.69922V0.796875H33.4248ZM33.7547 0H5.90234V51H44.4153V10.6606L33.7547 0Z" fill="#E3E3E3"/>
    <path d="M44.4141 10.6606H33.752V0L44.4141 10.6606Z" fill="#FFB74B" fill-opacity="0.77"/>
    <path d="M40.5935 42.1244H2.19531V29.1863H48.8045L40.5935 42.1244Z" fill="#FFB74B"/>
    <path d="M5.90078 45.8283V42.1244H2.19531L5.90078 45.8283Z" fill="#FFB74B" fill-opacity="0.77"/>
    <path d="M8.75195 39.3911V31.9547H12.408C13.4455 31.9547 14.1723 32.1826 14.5883 32.6368C15.0058 33.091 15.213 33.8863 15.213 35.0226C15.213 36.8777 15.0473 38.0699 14.7126 38.599C14.3795 39.1265 13.624 39.3911 12.4526 39.3911H8.75195ZM10.164 38.2037H12.1737C12.8495 38.2037 13.2862 38.0476 13.4838 37.7384C13.6814 37.4276 13.7818 36.7423 13.7818 35.6808C13.7818 34.5843 13.6926 33.8879 13.5141 33.5898C13.3372 33.2918 12.9196 33.1452 12.2614 33.1452H10.164V38.2037Z" fill="white"/>
    <path d="M19.3312 31.8893C20.6827 31.8893 21.5529 32.1157 21.9417 32.5635C22.329 33.0113 22.5235 34.0154 22.5235 35.5725C22.5235 37.2762 22.329 38.3488 21.9385 38.7935C21.5481 39.2381 20.603 39.4581 19.1033 39.4581C17.7518 39.4581 16.8784 39.2381 16.4831 38.8014C16.0863 38.3648 15.8887 37.4005 15.8887 35.9136C15.8887 34.1413 16.0831 33.0273 16.472 32.5731C16.8593 32.1157 17.8139 31.8893 19.3312 31.8893ZM19.2212 33.1006C18.2729 33.1006 17.7199 33.2217 17.5605 33.4656C17.3995 33.7078 17.3215 34.5525 17.3215 35.9932C17.3215 37.0611 17.4155 37.7033 17.602 37.9217C17.7884 38.14 18.3399 38.2484 19.2547 38.2484C20.1312 38.2484 20.6556 38.1257 20.8293 37.8818C21.003 37.6364 21.0907 36.8937 21.0907 35.6522C21.0907 34.4059 21.0078 33.6696 20.8436 33.4417C20.6779 33.2122 20.1376 33.1006 19.2212 33.1006Z" fill="white"/>
    <path d="M28.0669 36.7391H29.4837V36.9941C29.4837 38.0285 29.2973 38.6978 28.9179 39.0022C28.5418 39.3051 27.7067 39.4565 26.4126 39.4565C24.9479 39.4565 24.0459 39.2174 23.708 38.7377C23.3701 38.258 23.2012 36.9766 23.2012 34.892C23.2012 33.6632 23.4307 32.8583 23.8881 32.4695C24.3455 32.0838 25.3033 31.8893 26.76 31.8893C27.8183 31.8893 28.5275 32.0503 28.8829 32.3675C29.2415 32.6846 29.4184 33.3157 29.4184 34.2608L29.4216 34.4298H28.0047V34.2385C28.0047 33.7508 27.9139 33.4401 27.7306 33.3046C27.5473 33.1675 27.1298 33.1006 26.4763 33.1006C25.5998 33.1006 25.0754 33.2058 24.9001 33.4209C24.7232 33.6361 24.6355 34.2704 24.6355 35.3271C24.6355 36.7519 24.7152 37.5934 24.8714 37.8547C25.0308 38.1161 25.5392 38.2468 26.4046 38.2468C27.1043 38.2468 27.5601 38.1735 27.7673 38.0285C27.9744 37.8834 28.0812 37.5631 28.0812 37.069L28.0669 36.7391Z" fill="white"/>
    <path d="M36.6385 31.9547L34.4056 35.5565L36.7867 39.3911H35.1308L34.063 37.6045C33.8972 37.3288 33.7426 37.0483 33.5928 36.7662L33.4398 36.4713L33.282 36.1813H33.2597L33.1019 36.4777C32.9123 36.8331 32.6971 37.2092 32.4581 37.6045L31.3855 39.3911H29.6865L32.1266 35.5565L29.8602 31.9547H31.5432L32.5361 33.6106C32.6923 33.8719 32.8374 34.1301 32.976 34.3851L33.1115 34.6465L33.2486 34.9079H33.2709C33.333 34.7915 33.3777 34.7039 33.4079 34.6465L33.5434 34.3899C33.6597 34.1636 33.8048 33.907 33.9785 33.6169L34.9698 31.9547H36.6385Z" fill="white"/>
</svg>
