<svg width="24" height="24" viewBox="0 0 24 24" fill="none" xmlns="http://www.w3.org/2000/svg">
    <path d="M2.99829 2.9649C2.90022 2.72954 2.62197 2.61362 2.3861 2.71178C2.15027 2.80994 2.03468 3.08767 2.1325 3.32397C2.23005 3.55965 2.50938 3.67478 2.74469 3.57709C2.98136 3.47884 3.09536 3.20162 2.99829 2.9649Z" fill="#FFB74B"/>
    <path d="M4.60366 2.96536C4.50686 2.72902 4.22679 2.61422 3.99147 2.71177C3.75546 2.8096 3.64033 3.08729 3.73788 3.32349C3.83529 3.55941 4.11424 3.67529 4.35011 3.57708C4.58529 3.47916 4.702 3.20124 4.60366 2.96536Z" fill="#FFB74B"/>
    <path d="M6.30091 2.96537C6.20407 2.72894 5.92399 2.61461 5.68872 2.71178C5.45252 2.80933 5.33768 3.08753 5.43513 3.3235C5.53258 3.55942 5.81149 3.67525 6.04737 3.57709C6.28254 3.47922 6.39926 3.2012 6.30091 2.96537Z" fill="#FFB74B"/>
    <path d="M23.8638 20.6914L21.7892 18.6169L23.6523 18.0397C23.8457 17.9798 23.9816 17.7962 23.9823 17.5938C23.9831 17.3914 23.8487 17.2067 23.6557 17.1453L21.2119 16.3673V12.9533C21.2119 12.6944 21.002 12.4845 20.7432 12.4845C20.4843 12.4845 20.2744 12.6944 20.2744 12.9533V16.0689L16.3505 14.8197C15.9943 14.7065 15.6485 15.0539 15.7615 15.4086L17.0692 19.5161H2.24321C1.52323 19.5161 0.937544 18.9304 0.937544 18.2105V5.32944H20.2744V8.82559C20.2744 9.08449 20.4843 9.29436 20.7432 9.29436C21.002 9.29436 21.2119 9.08449 21.2119 8.82559L21.2124 3.20248C21.2124 1.96572 20.2062 0.959503 18.9694 0.959503H2.24321C1.00641 0.959503 0.000234386 1.96572 0.000234386 3.20248L0 18.2105C0 19.4474 1.00631 20.4537 2.24321 20.4537H17.3677L18.0872 22.7139C18.1484 22.9062 18.3322 23.0405 18.534 23.0405C18.7359 23.0404 18.9197 22.9059 18.9807 22.7134L19.5825 20.8154L21.6612 22.894C21.8443 23.0772 22.141 23.0772 22.3241 22.894L23.8639 21.3544C24.0454 21.1798 24.0454 20.866 23.8638 20.6914ZM0.937778 3.20248C0.937778 2.48268 1.52337 1.89705 2.24321 1.89705H18.9694C19.6892 1.89705 20.2749 2.48268 20.2749 3.20248V4.3918H0.937778V3.20248ZM21.9926 21.8997L19.7002 19.6073C19.4559 19.3629 19.0261 19.4686 18.9219 19.797L18.5329 21.0236L16.93 15.9882L21.949 17.5859L20.7697 17.9512C20.4391 18.0537 20.3317 18.4852 20.5769 18.7305L22.8694 21.0229L21.9926 21.8997Z" fill="#FFB74B"/>
    <path d="M5.49403 6.30336C5.36601 6.2862 5.23864 6.27753 5.11559 6.27753C3.55275 6.27753 2.28125 7.54902 2.28125 9.11182C2.28125 10.6746 3.55275 11.9461 5.11559 11.9461C6.45806 11.9461 7.62605 10.9923 7.89278 9.67814C7.9443 9.42444 7.78042 9.17702 7.52662 9.12546C7.27292 9.07403 7.02551 9.23782 6.97399 9.49162C6.79553 10.3706 6.01399 11.0086 5.11554 11.0086C4.06962 11.0086 3.21875 10.1577 3.21875 9.11182C3.21875 8.06594 4.06962 7.21507 5.11554 7.21507C5.19715 7.21507 5.2827 7.22098 5.36976 7.2326C5.62608 7.26701 5.8622 7.08677 5.89652 6.83012C5.93083 6.57351 5.75068 6.33767 5.49403 6.30336Z" fill="#FFB74B"/>
    <path d="M5.11559 18.5146C6.67843 18.5146 7.94988 17.2431 7.94988 15.6803C7.94988 14.1174 6.67843 12.8459 5.11559 12.8459C3.55275 12.8459 2.28125 14.1174 2.28125 15.6803C2.28125 17.2431 3.55275 18.5146 5.11559 18.5146ZM5.11559 13.7834C6.16146 13.7834 7.01233 14.6343 7.01233 15.6802C7.01233 16.7261 6.16146 17.577 5.11559 17.577C4.06966 17.577 3.21879 16.7261 3.21879 15.6802C3.21879 14.6344 4.06966 13.7834 5.11559 13.7834Z" fill="#FFB74B"/>
    <path d="M17.1886 7.45566H9.54104C9.28218 7.45566 9.07227 7.66553 9.07227 7.92443C9.07227 8.18333 9.28218 8.3932 9.54104 8.3932H17.1886C17.4474 8.3932 17.6574 8.18333 17.6574 7.92443C17.6574 7.66553 17.4474 7.45566 17.1886 7.45566Z" fill="#FFB74B"/>
    <path d="M17.6574 10.1764C17.6574 9.91754 17.4474 9.70767 17.1886 9.70767H9.54104C9.28218 9.70767 9.07227 9.91754 9.07227 10.1764C9.07227 10.4353 9.28218 10.6452 9.54104 10.6452H17.1886C17.4474 10.6452 17.6574 10.4353 17.6574 10.1764Z" fill="#FFB74B"/>
    <path d="M9.54104 15.0531H13.8574C14.1163 15.0531 14.3262 14.8433 14.3262 14.5844C14.3262 14.3255 14.1163 14.1156 13.8574 14.1156H9.54104C9.28218 14.1156 9.07227 14.3255 9.07227 14.5844C9.07227 14.8433 9.28218 15.0531 9.54104 15.0531Z" fill="#FFB74B"/>
    <path d="M9.54104 17.3052H14.3266C14.5855 17.3052 14.7954 17.0953 14.7954 16.8364C14.7954 16.5775 14.5855 16.3676 14.3266 16.3676H9.54104C9.28218 16.3676 9.07227 16.5775 9.07227 16.8364C9.07227 17.0953 9.28218 17.3052 9.54104 17.3052Z" fill="#FFB74B"/>
    <path d="M4.76121 8.5048C4.57811 8.32175 4.28138 8.32175 4.09823 8.5048C3.91517 8.68786 3.91517 8.98468 4.09823 9.16779L4.81676 9.88632C4.99986 10.0694 5.2966 10.0694 5.47975 9.88632L7.75718 7.60888C7.94024 7.42583 7.94024 7.129 7.75718 6.94595C7.57417 6.76289 7.27744 6.76289 7.0942 6.94595L5.14823 8.89191L4.76121 8.5048Z" fill="#FFB74B"/>
    <path d="M21.1336 10.6256C21.0245 10.4588 20.8102 10.3813 20.6192 10.4346C20.43 10.4873 20.292 10.6555 20.2769 10.8514C20.2432 11.2862 20.7967 11.5213 21.0897 11.2023C21.234 11.0452 21.2519 10.8029 21.1336 10.6256Z" fill="#FFB74B"/>
</svg>
