<svg width="39" height="39" viewBox="0 0 39 39" fill="none" xmlns="http://www.w3.org/2000/svg">
    <path d="M13.1426 16.1567H9.45465C9.14818 16.1567 8.85229 16.3005 8.85229 16.5775V23.2391C8.85229 23.5163 9.19047 23.66 9.53908 23.66C9.87726 23.66 10.2259 23.5163 10.2259 23.2391V20.4267H11.8427C12.1386 20.4267 12.2653 20.1496 12.2653 19.9134C12.2653 19.6363 12.1174 19.3796 11.8427 19.3796H10.2259V17.3268H13.1425C13.4172 17.3268 13.5651 17.0497 13.5651 16.7315C13.5652 16.4544 13.4384 16.1567 13.1426 16.1567Z" fill="#FFB74B"/>
    <path d="M19.2613 22.8493L17.877 20.355C18.6695 20.1191 19.2612 19.4826 19.2612 18.3022C19.2612 16.6702 18.1412 16.157 16.7568 16.157H14.6645C14.4003 16.157 14.2207 16.3521 14.2207 16.5675V23.2393C14.2207 23.5165 14.5693 23.6603 14.9075 23.6603C15.2562 23.6603 15.5944 23.5165 15.5944 23.2393V20.5604H16.4821L17.9826 23.3934C18.0882 23.5986 18.2679 23.7116 18.4581 23.7116C18.8597 23.7116 19.3141 23.3523 19.3141 23.0137C19.3141 22.9725 19.3036 22.9007 19.2613 22.8493ZM16.7568 19.5133H15.5944V17.327H16.7568C17.4436 17.327 17.8875 17.6145 17.8875 18.4253C17.8875 19.2363 17.4437 19.5133 16.7568 19.5133Z" fill="#FFB74B"/>
    <path d="M24.6084 22.4901H21.6179V20.427H23.2241C23.5199 20.427 23.6573 20.1499 23.6573 19.9137C23.6573 19.6366 23.4988 19.3799 23.2241 19.3799H21.6179V17.3271H24.6084V17.327C24.8831 17.327 25.0416 17.05 25.0416 16.7318C25.0416 16.4546 24.9043 16.157 24.6084 16.157H20.8465C20.54 16.157 20.2441 16.3007 20.2441 16.5778V23.2393C20.2441 23.5165 20.54 23.6602 20.8465 23.6602H24.6084C24.9043 23.6602 25.0416 23.3626 25.0416 23.0854C25.0416 22.7672 24.8831 22.4901 24.6084 22.4901Z" fill="#FFB74B"/>
    <path d="M30.2094 22.4901H27.2189V20.427H28.8251C29.121 20.427 29.2583 20.1499 29.2583 19.9137C29.2583 19.6366 29.0998 19.3799 28.8251 19.3799H27.2189V17.3271H30.2094V17.327C30.4842 17.327 30.6427 17.05 30.6427 16.7318C30.6427 16.4546 30.5053 16.157 30.2094 16.157H26.4476C26.1411 16.157 25.8452 16.3007 25.8452 16.5778V23.2393C25.8452 23.5165 26.1411 23.6602 26.4476 23.6602H30.2094C30.5053 23.6602 30.6427 23.3626 30.6427 23.0854C30.6427 22.7672 30.4842 22.4901 30.2094 22.4901Z" fill="#FFB74B"/>
    <path d="M34.2637 19.0965C34.2617 19.0257 34.2582 18.9551 34.2553 18.8844C34.2531 18.8316 34.2515 18.7787 34.2487 18.726C34.2436 18.6294 34.2368 18.5331 34.2298 18.4368C34.228 18.4125 34.2266 18.388 34.2247 18.3637C34.2157 18.25 34.2051 18.1366 34.1935 18.0235C34.193 18.0187 34.1926 18.0139 34.1921 18.0092C34.0265 16.4165 33.5903 14.8767 32.8874 13.4155C32.879 13.3982 32.8689 13.3819 32.8588 13.3658C30.4933 8.51139 25.4018 5.14502 19.5153 5.14502C13.629 5.14502 8.53758 8.51118 6.17211 13.3655C6.16187 13.3818 6.15171 13.3982 6.14327 13.4158C5.44031 14.8769 5.00418 16.4169 4.8386 18.0096C4.8381 18.014 4.83774 18.0185 4.83731 18.023C4.82558 18.1364 4.81499 18.2501 4.80604 18.3639C4.80411 18.3881 4.80275 18.4125 4.80096 18.4367C4.79388 18.5331 4.78708 18.6295 4.78207 18.7261C4.77928 18.7789 4.77771 18.8319 4.77549 18.8848C4.77255 18.9554 4.76905 19.0258 4.76719 19.0965C4.76382 19.2225 4.76196 19.3489 4.76196 19.4756C4.76196 19.6023 4.76382 19.7288 4.76719 19.8547C4.76905 19.9255 4.77262 19.9959 4.77549 20.0664C4.77771 20.1193 4.77928 20.1724 4.78207 20.2252C4.78715 20.3218 4.79402 20.4182 4.80096 20.5145C4.80275 20.5387 4.80411 20.5632 4.80604 20.5873C4.81499 20.7013 4.82558 20.8149 4.83731 20.9283C4.83774 20.9327 4.83817 20.9372 4.8386 20.9417C5.00425 22.5344 5.44038 24.0743 6.14327 25.5355C6.15171 25.553 6.16187 25.5694 6.17211 25.5857C8.53765 30.4399 13.629 33.8061 19.5153 33.8061C25.4018 33.8061 30.4933 30.4397 32.8588 25.5853C32.8689 25.5691 32.8789 25.5529 32.8874 25.5355C33.5903 24.0744 34.0265 22.5345 34.1921 20.9418C34.1926 20.9371 34.1931 20.9323 34.1935 20.9276C34.2051 20.8144 34.2157 20.701 34.2247 20.5873C34.2266 20.5631 34.228 20.5386 34.2298 20.5142C34.2368 20.418 34.2436 20.3216 34.2487 20.225C34.2515 20.1723 34.2531 20.1194 34.2553 20.0666C34.2582 19.996 34.2617 19.9255 34.2637 19.8546C34.267 19.7286 34.2689 19.6023 34.2689 19.4756C34.2689 19.3488 34.267 19.2225 34.2637 19.0965ZM32.0525 24.795H29.5666C29.2708 24.795 29.031 25.0278 29.031 25.3152C29.031 25.6025 29.2708 25.8353 29.5666 25.8353H31.5265C29.2016 29.9612 24.6895 32.7655 19.5154 32.7655C14.3413 32.7655 9.82909 29.9613 7.50432 25.8354H27.0747C27.3705 25.8354 27.6102 25.6026 27.6102 25.3152C27.6102 25.0279 27.3704 24.7951 27.0747 24.7951H6.97818C6.24237 23.1653 5.833 21.3661 5.833 19.4756C5.833 17.5851 6.24244 15.786 6.97818 14.1562H9.46408C9.75989 14.1562 9.9996 13.9233 9.9996 13.636C9.9996 13.3487 9.75982 13.1158 9.46408 13.1158H7.50418C9.82902 8.98979 14.3412 6.1855 19.5153 6.1855C24.6894 6.1855 29.2016 8.98986 31.5263 13.1157H11.9561C11.6603 13.1157 11.4205 13.3485 11.4205 13.6359C11.4205 13.9232 11.6603 14.156 11.9561 14.156H32.0524C32.7882 15.7858 33.1976 17.585 33.1976 19.4755C33.1976 21.366 32.7883 23.1652 32.0525 24.795Z" fill="#FFB74B" stroke="#FFB74B"/>
    <path d="M37.06 18.4754C37.5135 17.8675 37.6892 17.1255 37.555 16.3862C37.4208 15.6469 36.9943 15.0082 36.3542 14.5875C35.7241 14.1735 35.441 13.4178 35.6496 12.7071C35.8616 11.9853 35.7655 11.2297 35.3791 10.5796C34.9927 9.92941 34.367 9.47075 33.6173 9.28809C32.8794 9.10828 32.3473 8.4922 32.2931 7.75517C32.2381 7.00633 31.8817 6.32825 31.2897 5.84575C30.6976 5.36325 29.9482 5.14014 29.1795 5.2175C28.4227 5.29382 27.7058 4.89167 27.3955 4.21699C27.0801 3.53161 26.5064 3.01276 25.7803 2.75601C25.054 2.49933 24.2712 2.53853 23.5761 2.86673C22.892 3.18951 22.0766 3.05015 21.5473 2.51928C21.0097 1.97985 20.288 1.68286 19.5151 1.68286C18.7422 1.68286 18.0205 1.97985 17.4828 2.51907C16.9536 3.04994 16.1382 3.18958 15.454 2.86645C14.7589 2.53832 13.9761 2.49905 13.2498 2.7558C12.5236 3.01255 11.9499 3.5314 11.6346 4.21678C11.3241 4.89146 10.607 5.29333 9.85053 5.21729C9.08174 5.14007 8.33234 5.36304 7.74037 5.84554C7.14832 6.32804 6.79197 7.00613 6.73694 7.75497C6.68278 8.49199 6.15062 9.10808 5.41274 9.28788C4.66305 9.47054 4.03745 9.9292 3.65098 10.5793C3.2645 11.2295 3.16848 11.985 3.38042 12.7069C3.58901 13.4176 3.30594 14.1733 2.67582 14.5873C2.03568 15.0079 1.60929 15.6468 1.47505 16.3861C1.34088 17.1254 1.51662 17.8673 1.97007 18.4753C2.41636 19.0737 2.41636 19.8779 1.97007 20.4764C1.51662 21.0844 1.34088 21.8263 1.47505 22.5656C1.60921 23.305 2.03576 23.9437 2.67582 24.3643C3.30594 24.7784 3.58901 25.5341 3.38042 26.2447C3.16848 26.9666 3.2645 27.7222 3.65098 28.3723C4.03737 29.0224 4.66305 29.4811 5.41274 29.6638C6.15062 29.8436 6.68278 30.4597 6.73694 31.1967C6.7919 31.9455 7.14832 32.6236 7.74037 33.1061C8.33249 33.5886 9.08181 33.8118 9.85053 33.7344C10.6074 33.6582 11.3242 34.0603 11.6346 34.7349C11.9499 35.4202 12.5236 35.9391 13.2498 36.1958C13.976 36.4526 14.7589 36.4133 15.454 36.0851C16.1381 35.7623 16.9534 35.9018 17.4827 36.4326C18.0205 36.9721 18.7422 37.2691 19.5151 37.2691C20.288 37.2691 21.0097 36.9721 21.5474 36.4329C22.0766 35.902 22.8919 35.7623 23.5762 36.0855C24.2713 36.4136 25.0541 36.4529 25.7803 36.1961C26.5066 35.9394 27.0803 35.4205 27.3956 34.7351C27.7061 34.0605 28.4232 33.6582 29.1796 33.7346C29.9487 33.812 30.6978 33.5889 31.2898 33.1064C31.8819 32.6239 32.2382 31.9458 32.2932 31.197C32.3473 30.4599 32.8796 29.8438 33.6174 29.664C34.3671 29.4814 34.9927 29.0227 35.3792 28.3726C35.7656 27.7224 35.8617 26.9669 35.6498 26.245C35.4412 25.5343 35.7242 24.7787 36.3544 24.3646C36.9945 23.944 37.4209 23.3052 37.5551 22.5659C37.6893 21.8266 37.5136 21.0847 37.0602 20.4767C36.6138 19.878 36.6138 19.0739 37.06 18.4754ZM36.1909 21.088C36.4722 21.4654 36.5813 21.9258 36.4981 22.3848C36.4148 22.8436 36.1502 23.2401 35.7528 23.5012C34.7376 24.1684 34.2814 25.3859 34.6176 26.5309C34.7491 26.9789 34.6895 27.4478 34.4497 27.8514C34.2099 28.2549 33.8215 28.5395 33.3563 28.6529C32.1674 28.9426 31.31 29.9351 31.2227 31.1227C31.1886 31.5875 30.9674 32.0084 30.6 32.3079C30.2325 32.6074 29.7673 32.7457 29.2903 32.6978C28.071 32.5748 26.9159 33.223 26.4157 34.3099C26.22 34.7354 25.864 35.0573 25.4133 35.2167C24.9625 35.376 24.4767 35.3516 24.0453 35.1481C22.9427 34.6276 21.6292 34.8525 20.7764 35.7079C20.4427 36.0425 19.9947 36.2268 19.5151 36.2268C19.0354 36.2268 18.5874 36.0425 18.2538 35.7079C17.7072 35.1597 16.9714 34.8705 16.223 34.8705C15.8038 34.8705 15.3807 34.9612 14.9849 35.1481C14.5536 35.3516 14.0677 35.3761 13.617 35.2167C13.1662 35.0574 12.8102 34.7354 12.6144 34.31C12.1143 33.2231 10.9591 32.5748 9.73984 32.6979C9.26256 32.7459 8.79767 32.6075 8.43023 32.308C8.06279 32.0084 7.84162 31.5876 7.80749 31.1228C7.72019 29.9352 6.86281 28.9427 5.67385 28.653C5.20859 28.5395 4.82026 28.2549 4.58048 27.8514C4.34063 27.4479 4.28102 26.9791 4.41261 26.5309C4.74885 25.386 4.29254 24.1684 3.27738 23.5012C2.88011 23.2402 2.6155 22.8437 2.53214 22.3849C2.44884 21.926 2.55797 21.4655 2.83932 21.0881C3.55838 20.1239 3.55838 18.8283 2.83932 17.8641C2.55797 17.4867 2.44884 17.0263 2.53214 16.5673C2.6155 16.1085 2.88004 15.712 3.27746 15.451C4.29261 14.7837 4.74885 13.5662 4.41268 12.4213C4.28116 11.9733 4.34077 11.5043 4.58055 11.1008C4.82033 10.6972 5.20874 10.4126 5.67392 10.2992C6.86288 10.0095 7.72026 9.01702 7.80756 7.8294C7.84169 7.36463 8.06287 6.94378 8.4303 6.64422C8.79774 6.34472 9.26321 6.20627 9.73991 6.2543C10.9595 6.37767 12.1143 5.72919 12.6145 4.64222C12.8103 4.21678 13.1663 3.89484 13.617 3.73546C14.0677 3.57602 14.5536 3.60048 14.985 3.80406C16.0875 4.32451 17.4011 4.0996 18.2539 3.24428C18.5875 2.90961 19.0355 2.72529 19.5152 2.72529C19.9949 2.72529 20.4428 2.90961 20.7765 3.24428C21.6291 4.09946 22.9427 4.3243 24.0453 3.80413C24.4767 3.60048 24.9626 3.57602 25.4133 3.73546C25.8641 3.89484 26.22 4.21678 26.4158 4.64222C26.9159 5.72919 28.0713 6.37753 29.2903 6.2543C29.7673 6.20627 30.2325 6.34465 30.6 6.64422C30.9674 6.94378 31.1886 7.36463 31.2227 7.8294C31.31 9.01702 32.1674 10.0095 33.3563 10.2992C33.8216 10.4127 34.2099 10.6973 34.4497 11.1008C34.6895 11.5043 34.7492 11.9732 34.6176 12.4213C34.2813 13.5662 34.7376 14.7838 35.7528 15.451C36.1501 15.712 36.4147 16.1085 36.498 16.5673C36.5813 17.0262 36.4722 17.4867 36.1908 17.8641C35.4717 18.8281 35.4717 20.1238 36.1909 21.088Z" fill="#FFB74B" stroke="#FFB74B"/>
</svg>
