<svg width="35" height="36" viewBox="0 0 35 36" fill="none" xmlns="http://www.w3.org/2000/svg">
    <g clip-path="url(#clip0_0_58)">
        <path d="M16.9178 2.32361C16.3511 2.32361 15.7848 2.35484 15.2214 2.41712C14.705 2.4712 14.1949 2.55991 13.6916 2.66755C13.5942 2.68844 13.4968 2.71048 13.3994 2.73354C10.4344 3.42575 7.72694 4.9802 5.60182 7.21051C5.4042 7.41821 5.21074 7.63207 5.02156 7.85201C-0.719005 14.6097 -0.0300838 24.8596 6.56036 30.7458C12.8698 36.3812 22.3672 36.0062 28.2355 29.8902C28.4335 29.6825 28.6269 29.4686 28.8157 29.2487C31.3491 26.2904 32.7452 22.4873 32.743 18.5503C32.743 9.58848 25.6578 2.32354 16.9178 2.32361ZM6.30498 8.02185C6.38833 7.93314 6.47484 7.84822 6.55977 7.76222C6.65788 7.66324 6.75547 7.56371 6.8557 7.46797C6.94379 7.3836 7.03452 7.30246 7.12472 7.22025C7.22653 7.12775 7.32781 7.03526 7.43226 6.94601C7.52405 6.8665 7.61847 6.79024 7.71236 6.71343C7.81787 6.62689 7.92337 6.54034 8.03203 6.45705C8.12804 6.38294 8.22563 6.311 8.32374 6.24069C8.43294 6.16064 8.54266 6.07842 8.65396 6.00378C8.75366 5.93454 8.85441 5.86747 8.95569 5.80094C9.06858 5.72684 9.18199 5.65382 9.29646 5.58459C9.39952 5.5215 9.50324 5.45944 9.60769 5.39852C9.72446 5.33037 9.8417 5.26384 9.95953 5.19893C10.065 5.14126 10.1705 5.0848 10.276 5.02963C10.3963 4.96743 10.5176 4.90739 10.6395 4.84843C10.745 4.79704 10.8547 4.74566 10.9634 4.69698C11.0873 4.64289 11.2129 4.5888 11.3384 4.53471C11.4476 4.48874 11.5563 4.44384 11.6665 4.40057C11.7942 4.35081 11.9234 4.30429 12.0527 4.25777C12.1629 4.21829 12.2732 4.1788 12.385 4.14148C12.5163 4.09821 12.6488 4.05818 12.7817 4.0187C12.893 3.98571 13.0032 3.95163 13.1151 3.9208C13.1578 3.90944 13.2005 3.90024 13.2432 3.88889C11.6818 5.44348 10.5231 7.37284 9.87197 9.50227C8.61994 9.16367 7.40786 8.68539 6.25751 8.07594C6.27491 8.05701 6.28968 8.03808 6.30498 8.02185ZM5.54643 8.89269C6.81356 9.59666 8.15725 10.145 9.54966 10.5262C8.86707 12.9599 8.50876 15.4772 8.48463 18.0094H2.15985C2.27478 14.6702 3.46569 11.4642 5.54643 8.89269ZM5.54643 28.208C3.46582 25.6364 2.27491 22.4304 2.15985 19.0912H8.48463C8.50876 21.6235 8.86701 24.1407 9.54966 26.5745C8.15731 26.9558 6.81363 27.5041 5.54643 28.208ZM13.1119 33.182C13.0053 33.1544 12.8951 33.1187 12.7854 33.0858C12.6519 33.0457 12.5179 33.0057 12.3861 32.9619C12.2748 32.9251 12.165 32.8856 12.0553 32.8461C11.9255 32.8002 11.7958 32.7531 11.6676 32.7028C11.5579 32.6601 11.4497 32.6152 11.3411 32.5697C11.215 32.5156 11.0889 32.4616 10.9639 32.4075C10.8563 32.3588 10.7492 32.3087 10.6427 32.2571C10.5197 32.1976 10.3974 32.137 10.2734 32.0743C10.1679 32.0202 10.0624 31.9661 9.9569 31.9071C9.83768 31.8417 9.71952 31.7746 9.60136 31.7054C9.49586 31.6454 9.39563 31.5837 9.29382 31.5209C9.17777 31.4496 9.06383 31.376 8.94989 31.3008C8.84966 31.2354 8.74944 31.1688 8.65079 31.1007C8.53844 31.0228 8.42713 30.9417 8.31688 30.8605C8.22035 30.7897 8.12382 30.7188 8.02887 30.6442C7.91967 30.5598 7.81259 30.4727 7.70603 30.3851C7.61267 30.3088 7.51983 30.2331 7.42857 30.1547C7.32307 30.0649 7.22126 29.9713 7.11892 29.8783C7.02925 29.7966 6.93904 29.716 6.85148 29.6327C6.75072 29.5364 6.65314 29.4363 6.55502 29.3374C6.47009 29.2514 6.38358 29.1664 6.30023 29.0783C6.28494 29.0615 6.27017 29.0442 6.25487 29.028C7.40516 28.4183 8.61723 27.9398 9.86933 27.6011C10.5206 29.7305 11.6793 31.6598 13.2406 33.2145C13.1979 33.2031 13.1546 33.1939 13.1119 33.182ZM16.3903 33.6526C14.1332 33.3237 12.1545 30.9081 10.9096 27.3409C12.7094 26.9277 14.5461 26.706 16.3903 26.6794V33.6526ZM16.3903 25.5976C14.434 25.624 12.4858 25.8623 10.5783 26.3084C9.91595 23.9618 9.56654 21.534 9.53964 19.0912H16.3903V25.5976ZM16.3903 18.0094H9.53964C9.56648 15.5667 9.91588 13.1389 10.5783 10.7923C12.4858 11.2383 14.434 11.4766 16.3903 11.503V18.0094ZM16.3903 10.4213C14.5461 10.3949 12.7094 10.1732 10.9096 9.75974C12.1545 6.19255 14.1332 3.77692 16.3903 3.44806V10.4213ZM28.2893 8.89269C30.3699 11.4642 31.5608 14.6702 31.6758 18.0094H25.3511C25.3269 15.4772 24.9687 12.9599 24.286 10.5262C25.6784 10.1448 27.0221 9.59652 28.2893 8.89269ZM20.7196 3.91809C20.8303 3.94622 20.9406 3.98192 21.0503 4.01491C21.1838 4.05494 21.3178 4.09497 21.4496 4.13878C21.5609 4.17556 21.6707 4.21504 21.7804 4.25453C21.9102 4.30051 22.0399 4.34756 22.1681 4.39787C22.2778 4.4406 22.386 4.48549 22.4946 4.53093C22.6207 4.58501 22.7468 4.6391 22.8718 4.69319C22.9794 4.74187 23.0865 4.79197 23.193 4.84356C23.316 4.90306 23.4383 4.96364 23.5623 5.02638C23.6678 5.08047 23.7733 5.13456 23.8788 5.19352C23.998 5.25897 24.1162 5.32604 24.2343 5.39527C24.3398 5.45531 24.4401 5.51697 24.5419 5.57972C24.6579 5.65111 24.7719 5.72468 24.8858 5.79986C24.986 5.86531 25.0863 5.93184 25.1849 5.99999C25.2973 6.07788 25.408 6.15847 25.5183 6.23961C25.6153 6.31046 25.7119 6.38186 25.8074 6.45596C25.916 6.5398 26.0226 6.62689 26.1297 6.71451C26.2225 6.79024 26.3159 6.86596 26.4071 6.94493C26.5126 7.03472 26.6144 7.12829 26.7168 7.22133C26.8064 7.303 26.8967 7.3836 26.9842 7.46689C27.085 7.56317 27.1826 7.66324 27.2807 7.76222C27.3656 7.84822 27.4521 7.93314 27.5355 8.02131C27.5508 8.03808 27.5655 8.05538 27.5808 8.07161C26.4305 8.68133 25.2185 9.15982 23.9664 9.49849C23.3138 7.36886 22.1537 5.43969 20.5909 3.88564C20.6336 3.897 20.6768 3.90619 20.7196 3.91809ZM17.4454 3.44806C19.7025 3.77692 21.6812 6.19255 22.9261 9.75974C21.1263 10.173 19.2896 10.3947 17.4454 10.4213V3.44806ZM17.4454 11.503C19.4017 11.4767 21.3499 11.2384 23.2574 10.7923C23.9197 13.1389 24.2691 15.5667 24.2961 18.0094H17.4454V11.503ZM17.4454 19.0912H24.2961C24.2692 21.534 23.9198 23.9618 23.2574 26.3084C21.3499 25.8623 19.4017 25.6241 17.4454 25.5976V19.0912ZM17.4454 33.6526V26.6794C19.2896 26.7058 21.1263 26.9275 22.9261 27.3409C21.6812 30.9081 19.7025 33.3237 17.4454 33.6526ZM27.5307 29.0788C27.4474 29.167 27.3614 29.2519 27.2765 29.3379C27.1783 29.4369 27.0802 29.537 26.9795 29.6332C26.8919 29.7171 26.8017 29.7955 26.712 29.8793C26.6097 29.9724 26.5079 30.0654 26.4034 30.1552C26.3111 30.2342 26.2172 30.3104 26.1233 30.3872C26.0178 30.4738 25.9123 30.5603 25.8037 30.6436C25.7077 30.7177 25.6101 30.7897 25.512 30.86C25.4028 30.94 25.293 31.0222 25.1817 31.0969C25.082 31.1661 24.9813 31.2332 24.88 31.2992C24.7671 31.3738 24.6534 31.446 24.5387 31.5155C24.4332 31.5788 24.3325 31.6405 24.2285 31.7016C24.1118 31.7698 23.9943 31.8363 23.8762 31.9012C23.7707 31.9589 23.6652 32.0153 23.5597 32.0705C23.4394 32.1327 23.3181 32.1927 23.1962 32.2517C23.0907 32.3031 22.981 32.3545 22.8723 32.4031C22.7484 32.4572 22.6228 32.5113 22.4973 32.5654C22.3881 32.6108 22.2794 32.6563 22.1697 32.699C22.041 32.7493 21.9117 32.7964 21.782 32.8424C21.6722 32.8818 21.5625 32.9213 21.4512 32.9581C21.3193 33.0019 21.1875 33.0419 21.053 33.0814C20.9427 33.115 20.8319 33.1485 20.7206 33.1793C20.6779 33.1907 20.6352 33.1999 20.5924 33.2112C22.1539 31.6566 23.3126 29.7273 23.9637 27.5979C25.2158 27.9365 26.4278 28.4147 27.5782 29.0242C27.5608 29.0437 27.546 29.0626 27.5307 29.0788ZM28.2893 28.208C27.0221 27.504 25.6784 26.9557 24.286 26.5745C24.9686 24.1407 25.3269 21.6235 25.3511 19.0912H31.6758C31.561 22.4304 30.37 25.6365 28.2893 28.208Z" fill="#FFB74B" stroke="#FFB74B"/>
    </g>
    <defs>
        <clipPath id="clip0_0_58">
            <rect width="35" height="35.8883" fill="white" transform="translate(0 0.00622559)"/>
        </clipPath>
    </defs>
</svg>
