<svg width="24" height="24" viewBox="0 0 24 24" fill="none" xmlns="http://www.w3.org/2000/svg">
    <path d="M22.7745 16.3871H1.22567C0.549845 16.3871 0 15.8375 0 15.1618V3.57486C0 2.89919 0.549845 2.34949 1.22567 2.34949H22.7745C23.4501 2.34949 24 2.89919 24 3.57486V15.1618C24 15.8375 23.4501 16.3871 22.7745 16.3871ZM1.22567 3.33932C1.09567 3.33932 0.989731 3.44496 0.989731 3.57486V15.1618C0.989731 15.2917 1.09567 15.3974 1.22567 15.3974H22.7745C22.9044 15.3974 23.0102 15.2917 23.0102 15.1618V3.57486C23.0102 3.44496 22.9045 3.33932 22.7745 3.33932H1.22567Z" fill="#FFB74B"/>
    <rect x="2" y="18" width="20" height="1" rx="0.5" fill="#FFB74B"/>
    <rect x="4" y="20" width="16" height="1" rx="0.5" fill="#FFB74B"/>
</svg>
