<svg width="66" height="66" viewBox="0 0 66 66" fill="none" xmlns="http://www.w3.org/2000/svg">
    <path d="M32.9999 65.9999C51.2253 65.9999 65.9999 51.2253 65.9999 32.9999C65.9999 14.7746 51.2253 0 32.9999 0C14.7746 0 0 14.7746 0 32.9999C0 51.2253 14.7746 65.9999 32.9999 65.9999Z" fill="#FFD595"/>
    <path d="M17.6214 0.0173278C8.10177 0.22113 0.310115 7.92861 0.00924571 17.4456C-0.140286 22.1736 1.53293 26.5089 4.37881 29.8024C5.66053 31.2857 6.02637 33.3524 5.36701 35.1984L4.18184 38.5168C3.79641 39.5962 5.04642 40.5187 5.96423 39.8323L10.1678 36.6885C11.4185 35.7531 13.0068 35.4051 14.5393 35.707C16.135 36.0214 17.8059 36.1253 19.5243 35.9833C28.5655 35.2351 35.6957 27.758 36.0206 18.6916C36.393 8.30747 27.973 -0.204263 17.6214 0.0173278Z" fill="#BE61FF"/>
    <path d="M58.6284 46.378C57.1036 48.2179 56.6201 50.7044 57.4228 52.9538L57.9926 54.55C57.2733 55.3837 56.5123 56.1812 55.7135 56.9394L52.1737 54.2954C50.6799 53.1815 48.7916 52.7397 46.9597 53.0804C45.7784 53.3014 44.4557 53.4967 43.4953 53.4967C32.6457 53.4967 23.8516 44.7025 23.8516 33.8529C23.8503 23.0142 32.6551 14.2092 43.4953 14.2092C54.3436 14.2092 63.1391 23.0033 63.1391 33.8529C63.1393 38.6129 61.4448 42.9784 58.6284 46.378Z" fill="#2DDC5E"/>
    <path d="M46.2693 44.7193C46.2693 46.2056 45.0004 47.5106 43.5141 47.5106C41.9189 47.5106 40.7227 46.2056 40.7227 44.7193C40.7227 43.1965 41.919 41.9278 43.5141 41.9278C45.0006 41.9278 46.2693 43.1966 46.2693 44.7193ZM45.5805 37.8312C45.5805 38.9552 44.3478 39.4265 43.4778 39.4265C42.3176 39.4265 41.339 38.9552 41.339 37.8312C41.339 33.5172 40.8316 27.3181 40.8316 23.0038C40.8316 21.59 41.9917 20.7924 43.4779 20.7924C44.8919 20.7924 46.0882 21.5899 46.0882 23.0038C46.0879 27.318 45.5805 33.5171 45.5805 37.8312Z" fill="#F9EED7"/>
    <path d="M21.1074 17.3272C19.2789 18.7567 19.2453 19.7544 19.2453 21.4833C19.2453 22.1152 18.9129 22.8463 17.2836 22.8463C15.9206 22.8463 15.4551 22.3477 15.4551 20.6187C15.4551 17.7593 16.7186 16.3961 17.6827 15.5649C18.78 14.6339 20.6419 13.6032 20.6419 11.8078C20.6419 10.2784 19.312 9.54672 17.6495 9.54672C14.2582 9.54672 14.9895 12.1069 13.1942 12.1069C12.2965 12.1069 11.1992 11.5086 11.1992 10.2116C11.1992 8.41634 13.2607 5.75634 17.7494 5.75634C22.0052 5.75634 24.8313 8.11702 24.8313 11.2424C24.8313 14.3677 22.0052 16.6289 21.1074 17.3272ZM19.8772 27.7008C19.8772 29.0639 18.7466 30.2609 17.317 30.2609C15.8874 30.2609 14.7901 29.0639 14.7901 27.7008C14.7901 26.3044 15.9207 25.1406 17.317 25.1406C18.7133 25.1406 19.8772 26.3044 19.8772 27.7008Z" fill="#F9EED7"/>
</svg>
