<svg width="106" height="146" viewBox="0 0 106 146" fill="none" xmlns="http://www.w3.org/2000/svg">
    <g filter="url(#filter0_d_0_1)">
        <path d="M66.0622 96.5927H32.079V82.0046C32.1015 79.5467 32.7834 77.14 34.0534 75.0357C35.3212 72.9484 36.817 71.0084 38.5133 69.2515C40.3483 67.37 42.1834 65.6277 44.0184 64.0017C45.8426 62.4166 47.5796 60.7339 49.2216 58.9609C50.6986 57.3795 51.9778 55.6244 53.0311 53.7342C53.9374 52.1009 54.4018 50.2593 54.3783 48.3914C54.3817 47.1259 54.1696 45.869 53.7511 44.6747C53.391 43.561 52.8059 42.5332 52.0322 41.6549C51.228 40.7593 50.2474 40.0396 49.1519 39.541C47.9773 38.9848 46.688 38.7142 45.3889 38.7512C43.8295 38.6708 42.2762 38.9991 40.8826 39.7036C39.841 40.2481 38.9541 41.0472 38.3042 42.0265C37.6343 43.2094 37.2004 44.5111 37.0267 45.8594C36.7665 47.4803 36.6345 49.1192 36.6318 50.7608V53.0838C36.6398 53.7604 36.6941 54.4356 36.7944 55.1048L37.0267 57.6832H0.743891L0.534835 55.6158C0.534835 54.5008 0.302547 53.4322 0.186405 52.4334C0.0615914 51.2683 -0.000436151 50.0974 0.000582071 48.9257C-0.0906317 43.2769 1.20968 37.6925 3.78681 32.665C6.31351 27.875 9.87649 23.7088 14.2164 20.4695C18.9074 17.0475 24.1806 14.5053 29.7794 12.9664C36.0818 11.1893 42.604 10.3134 49.1519 10.3647H49.4539C55.6418 10.3353 61.8006 11.2118 67.7347 12.9664C73.0263 14.51 77.982 17.0313 82.3453 20.3998C86.4062 23.57 89.6944 27.6208 91.9619 32.2469C94.2812 37.0786 95.4499 42.3819 95.3765 47.741C95.4784 51.67 94.684 55.5705 93.0536 59.1467C91.5516 62.3117 89.6038 65.2452 87.2698 67.8578C85.0344 70.3456 82.5689 72.6167 79.9063 74.6408C77.3745 76.5456 75.0284 78.3111 72.9378 79.9139C71.1019 81.2178 69.3701 82.6624 67.7579 84.2346C66.914 84.9343 66.3731 85.933 66.248 87.0221L66.0622 96.5927ZM36.7247 91.9468H61.4165V86.9524C61.4654 85.8003 61.7455 84.6698 62.2404 83.6282C62.7352 82.5866 63.4346 81.6552 64.2969 80.8895C66.0691 79.1355 67.98 77.5274 70.011 76.081C72.1713 74.5014 74.4941 72.7592 76.9796 70.8776C79.4035 69.0214 81.6508 66.9452 83.6926 64.6753C85.7411 62.4069 87.4542 59.8567 88.7796 57.1025C90.1207 54.1915 90.7877 51.0153 90.7308 47.8107C90.8161 43.1681 89.8138 38.5699 87.804 34.384C85.84 30.3727 82.9882 26.8614 79.465 24.1166C75.552 21.1021 71.1082 18.8486 66.3642 17.4729C60.8705 15.8797 55.1737 15.0971 49.4539 15.15H49.1519C43.0485 15.0656 36.9639 15.8477 31.0802 17.4729C26.0519 18.9353 21.33 21.2964 17.1432 24.4418C13.35 27.2778 10.2323 30.9192 8.01438 35.1041C5.80105 39.412 4.68409 44.1992 4.76241 49.0418C4.75212 50.0354 4.80643 51.0287 4.925 52.0152C4.925 52.3869 4.925 52.7818 4.925 53.1535H31.9164V50.8305C31.9179 48.9394 32.0732 47.0516 32.381 45.1858C32.6639 43.2622 33.3272 41.4143 34.3322 39.75C35.3525 38.0413 36.8124 36.6374 38.5598 35.6849C40.6553 34.5608 43.0126 34.0155 45.3889 34.1053C47.3851 34.0735 49.3626 34.4944 51.1728 35.3364C52.8003 36.1048 54.2605 37.1862 55.47 38.5189C56.6806 39.86 57.5913 41.4438 58.1413 43.1648C58.7309 44.844 59.0294 46.6117 59.024 48.3914C59.045 51.0471 58.3809 53.6633 57.096 55.9875C55.8683 58.2008 54.3702 60.253 52.6362 62.0968C50.8842 63.9994 49.031 65.8062 47.0846 67.5093C45.3425 69.0193 43.6003 70.715 41.8582 72.4805C40.4056 73.9806 39.1276 75.6404 38.0487 77.4283C37.1993 78.8304 36.742 80.435 36.7247 82.0742V91.9468Z" fill="url(#paint0_linear_0_1)"/>
    </g>
    <g filter="url(#filter1_d_0_1)">
        <path d="M66.4805 135.06H32.1953V102.748H66.4805V135.06ZM36.841 130.414H61.8348V107.394H36.841V130.414Z" fill="url(#paint1_linear_0_1)"/>
    </g>
    <defs>
        <filter id="filter0_d_0_1" x="-10.0039" y="0.362549" width="115.389" height="106.23" filterUnits="userSpaceOnUse" color-interpolation-filters="sRGB">
            <feFlood flood-opacity="0" result="BackgroundImageFix"/>
            <feColorMatrix in="SourceAlpha" type="matrix" values="0 0 0 0 0 0 0 0 0 0 0 0 0 0 0 0 0 0 127 0" result="hardAlpha"/>
            <feOffset/>
            <feGaussianBlur stdDeviation="5"/>
            <feColorMatrix type="matrix" values="0 0 0 0 0 0 0 0 0 0 0 0 0 0 0 0 0 0 0.07 0"/>
            <feBlend mode="normal" in2="BackgroundImageFix" result="effect1_dropShadow_0_1"/>
            <feBlend mode="normal" in="SourceGraphic" in2="effect1_dropShadow_0_1" result="shape"/>
        </filter>
        <filter id="filter1_d_0_1" x="22.1953" y="92.748" width="54.2852" height="52.3123" filterUnits="userSpaceOnUse" color-interpolation-filters="sRGB">
            <feFlood flood-opacity="0" result="BackgroundImageFix"/>
            <feColorMatrix in="SourceAlpha" type="matrix" values="0 0 0 0 0 0 0 0 0 0 0 0 0 0 0 0 0 0 127 0" result="hardAlpha"/>
            <feOffset/>
            <feGaussianBlur stdDeviation="5"/>
            <feColorMatrix type="matrix" values="0 0 0 0 0 0 0 0 0 0 0 0 0 0 0 0 0 0 0.07 0"/>
            <feBlend mode="normal" in2="BackgroundImageFix" result="effect1_dropShadow_0_1"/>
            <feBlend mode="normal" in="SourceGraphic" in2="effect1_dropShadow_0_1" result="shape"/>
        </filter>
        <linearGradient id="paint0_linear_0_1" x1="47.6906" y1="10.3625" x2="47.6906" y2="96.5927" gradientUnits="userSpaceOnUse">
            <stop stop-color="#FFB74B" stop-opacity="0.6"/>
            <stop offset="1" stop-color="#FFA825"/>
        </linearGradient>
        <linearGradient id="paint1_linear_0_1" x1="49.3379" y1="102.748" x2="49.3379" y2="135.06" gradientUnits="userSpaceOnUse">
            <stop stop-color="#FFB74B" stop-opacity="0.6"/>
            <stop offset="1" stop-color="#FFA825"/>
        </linearGradient>
    </defs>
</svg>
