<svg width="39" height="39" viewBox="0 0 39 39" fill="none" xmlns="http://www.w3.org/2000/svg">
    <path d="M11.7057 7.91243H27.2482C27.5416 7.91243 27.7792 7.67367 27.7792 7.38025C27.7792 7.08571 27.5416 6.84695 27.2482 6.84695H11.7057C11.4111 6.84695 11.1724 7.08571 11.1724 7.38025C11.1724 7.67367 11.4111 7.91243 11.7057 7.91243Z" fill="#FFB74B"/>
    <path d="M5.58301 5.31956V37.3295C5.58635 38.251 6.33274 38.9974 7.25318 38.9996H31.6988C32.6215 38.9974 33.3678 38.251 33.369 37.3295V5.31956C33.3678 4.3969 32.6215 3.65051 31.6988 3.64939H23.5811C23.3134 1.38234 21.2594 -0.238744 18.9923 0.0290189C17.0935 0.252154 15.5962 1.75051 15.372 3.64939H7.25318C6.33163 3.65051 5.58412 4.3969 5.58301 5.31956ZM32.3001 37.3295C32.3001 37.6631 32.0301 37.933 31.6966 37.933H7.25318C6.91959 37.933 6.6496 37.6631 6.6496 37.3295V10.4785H32.3046L32.3001 37.3295ZM19.4765 1.05544C20.9872 1.05767 22.2691 2.15773 22.5045 3.64939H16.4631C16.6963 2.16331 17.9715 1.06437 19.4765 1.05544ZM31.6988 4.71375C32.0335 4.71375 32.3046 4.98597 32.3046 5.31956V9.41187H6.6496V5.31956C6.6496 4.98597 6.91959 4.71375 7.25318 4.71375H31.6988Z" fill="#FFB74B"/>
    <path d="M16.3491 16.3514H28.9495C29.243 16.3514 29.4817 16.1126 29.4817 15.8192C29.4817 15.5235 29.243 15.2859 28.9495 15.2859H16.3491C16.0545 15.2859 15.8169 15.5235 15.8169 15.8192C15.8169 16.1126 16.0545 16.3514 16.3491 16.3514Z" fill="#FFB74B"/>
    <path d="M16.3491 21.9131H28.9495C29.243 21.9131 29.4817 21.6743 29.4817 21.3798C29.4817 21.0852 29.243 20.8465 28.9495 20.8465H16.3491C16.0545 20.8465 15.8169 21.0852 15.8169 21.3798C15.8169 21.6743 16.0545 21.9131 16.3491 21.9131Z" fill="#FFB74B"/>
    <path d="M16.3491 27.4703H28.9495C29.243 27.4703 29.4817 27.2304 29.4817 26.937C29.4817 26.6424 29.243 26.4037 28.9495 26.4037H16.3491C16.0545 26.4037 15.8169 26.6424 15.8169 26.937C15.8169 27.2304 16.0545 27.4703 16.3491 27.4703Z" fill="#FFB74B"/>
    <path d="M16.3491 33.0263H28.9495C29.243 33.0263 29.4817 32.7887 29.4817 32.493C29.4817 32.1996 29.243 31.9619 28.9495 31.9619H16.3491C16.0545 31.9619 15.8169 32.1996 15.8169 32.493C15.8169 32.7887 16.0545 33.0263 16.3491 33.0263Z" fill="#FFB74B"/>
    <path d="M11.0341 16.6492C11.1178 16.7686 11.2461 16.8478 11.3889 16.8701H11.4681C11.5852 16.8701 11.7002 16.83 11.795 16.7563L15.19 14.1033C15.4455 13.9549 15.5325 13.6291 15.3852 13.3747C15.238 13.1192 14.9122 13.0322 14.6578 13.1806C14.6132 13.2051 14.573 13.2375 14.5373 13.2743L11.5841 15.5849L11.0687 14.8496C10.9002 14.6087 10.5677 14.5484 10.3268 14.718C10.0858 14.8865 10.0255 15.2189 10.1951 15.4599L11.0341 16.6492Z" fill="#FFB74B"/>
    <path d="M11.0341 22.1284C11.1178 22.2477 11.2461 22.3281 11.3889 22.3504H11.4681C11.5852 22.3493 11.7001 22.3091 11.795 22.2355L15.19 19.5813C15.4287 19.4072 15.4789 19.0736 15.3038 18.836C15.1297 18.5995 14.7961 18.5481 14.5585 18.7244C14.5507 18.73 14.5418 18.7367 14.534 18.7434L11.5841 21.0562L11.0687 20.321C10.937 20.0577 10.6168 19.9505 10.3546 20.0811C10.0913 20.2127 9.98423 20.5329 10.1159 20.7973C10.1371 20.8386 10.1627 20.8788 10.1951 20.9134L11.0341 22.1284Z" fill="#FFB74B"/>
    <path d="M11.0343 27.6231C11.118 27.7413 11.2463 27.8205 11.3891 27.8429H11.4683C11.5855 27.8429 11.7004 27.8027 11.7952 27.7291L15.1902 25.0749C15.429 24.8997 15.4792 24.5661 15.304 24.3296C15.13 24.092 14.7964 24.0429 14.5588 24.2169C14.5509 24.2236 14.542 24.2292 14.5342 24.2359L11.581 26.542L11.0667 25.8068C10.8971 25.5658 10.5646 25.5066 10.3236 25.6751C10.0815 25.8447 10.0235 26.1772 10.192 26.4181L11.0343 27.6231Z" fill="#FFB74B"/>
    <path d="M11.0341 33.1802C11.1178 33.2985 11.2461 33.3788 11.3889 33.4011H11.4681C11.5852 33.3989 11.7002 33.3587 11.795 33.2873L15.19 30.632C15.4399 30.4758 15.5147 30.1456 15.3585 29.8968C15.2 29.6469 14.8709 29.5744 14.6221 29.7305C14.592 29.7495 14.563 29.7718 14.5373 29.7975L11.5841 32.1069L11.0687 31.3717C10.9002 31.1296 10.5677 31.0716 10.3268 31.2401C10.0858 31.4085 10.0255 31.741 10.1951 31.982L11.0341 33.1802Z" fill="#FFB74B"/>
</svg>
