<svg xmlns="http://www.w3.org/2000/svg" display="none">
    <symbol id="clock" viewBox="0 0 9 9">
        <path d="M4.5 0C2.0186 0 0 2.0186 0 4.5C0 6.9814 2.0186 9 4.5 9C6.9814 9 9 6.9814 9 4.5C9 2.0186 6.9814 0 4.5 0ZM6.64014 6.82759C6.56701 6.90072 6.47102 6.93752 6.37502 6.93752C6.27903 6.93752 6.18297 6.90072 6.10991 6.82759L4.23489 4.95264C4.16437 4.88253 4.12502 4.78722 4.12502 4.68752V2.25C4.12502 2.04263 4.29298 1.87502 4.5 1.87502C4.70702 1.87502 4.87498 2.04263 4.87498 2.25V4.53227L6.64014 6.29736C6.78674 6.44403 6.78674 6.68099 6.64014 6.82759Z"/>
    </symbol>

    <symbol id="eye" viewBox="0 0 11 11">
        <g>
            <path d="M10.9179 5.28505C10.8197 5.17552 8.45802 2.59961 5.50001 2.59961C2.542 2.59961 0.180351 5.17552 0.0821455 5.28505C-0.0273818 5.40747 -0.0273818 5.59253 0.0821455 5.71495C0.180351 5.82448 2.54204 8.40039 5.50001 8.40039C8.45798 8.40039 10.8197 5.82448 10.9179 5.71495C11.0274 5.59253 11.0274 5.40747 10.9179 5.28505ZM5.50001 7.75586C4.25626 7.75586 3.24415 6.74375 3.24415 5.5C3.24415 4.25625 4.25626 3.24414 5.50001 3.24414C6.74376 3.24414 7.75587 4.25625 7.75587 5.5C7.75587 6.74375 6.74376 7.75586 5.50001 7.75586Z"/>
            <path d="M5.82422 4.85547C5.82422 4.53127 5.98516 4.24606 6.22999 4.07064C6.01029 3.95817 5.76524 3.88867 5.50195 3.88867C4.61351 3.88867 3.89062 4.61156 3.89062 5.5C3.89062 6.38844 4.61351 7.11133 5.50195 7.11133C6.29739 7.11133 6.95576 6.53052 7.08582 5.77161C6.43687 5.98054 5.82422 5.48973 5.82422 4.85547Z"/>
        </g>
    </symbol>

    <symbol id="info" viewBox="0 0 18 18">
        <path d="M9 0C4.02943 0 0 4.02943 0 9C0 13.9706 4.02943 18 9 18C13.9706 18 18 13.9706 18 9C18 4.02943 13.9706 0 9 0ZM9 16.875C4.65075 16.875 1.125 13.3492 1.125 9C1.125 4.65075 4.65075 1.125 9 1.125C13.3492 1.125 16.875 4.65075 16.875 9C16.875 13.3492 13.3492 16.875 9 16.875Z"/>
        <path d="M10.125 7.3125C10.125 6.69118 9.62132 6.1875 9 6.1875H7.3125V7.3125H9V13.5H7.875V14.625H11.25V13.5H10.125V7.3125Z"/>
        <path d="M9 5.0625C9.62132 5.0625 10.125 4.55882 10.125 3.9375C10.125 3.31618 9.62132 2.8125 9 2.8125C8.37868 2.8125 7.875 3.31618 7.875 3.9375C7.875 4.55882 8.37868 5.0625 9 5.0625Z"/>
    </symbol>


    <symbol id="user" viewBox="0 0 17 16">
        <g>
            <path d="M8.00781 0C5.68159 0 3.78906 1.89253 3.78906 4.21875C3.78906 6.54497 5.68159 8.4375 8.00781 8.4375C10.334 8.4375 12.2266 6.54497 12.2266 4.21875C12.2266 1.89253 10.334 0 8.00781 0ZM8.00781 7.5C6.19853 7.5 4.72656 6.02803 4.72656 4.21875C4.72656 2.40947 6.19853 0.9375 8.00781 0.9375C9.81709 0.9375 11.2891 2.40947 11.2891 4.21875C11.2891 6.02803 9.81709 7.5 8.00781 7.5Z"/>
            <path d="M13.2568 11.1936C12.1018 10.0208 10.5706 9.375 8.94531 9.375H7.07031C5.44506 9.375 3.91387 10.0208 2.75887 11.1936C1.60953 12.3606 0.976562 13.901 0.976562 15.5312C0.976562 15.7901 1.18644 16 1.44531 16H14.5703C14.8292 16 15.0391 15.7901 15.0391 15.5312C15.0391 13.901 14.4061 12.3606 13.2568 11.1936ZM1.93469 15.0625C2.16953 12.4036 4.38316 10.3125 7.07031 10.3125H8.94531C11.6325 10.3125 13.8461 12.4036 14.0809 15.0625H1.93469Z"/>
        </g>
    </symbol>

    <symbol id="user2" viewBox="0 0 15 15">
        <g>
            <path d="M7.60585 7.22554C6.61319 7.22554 5.75362 6.86952 5.0513 6.16708C4.34898 5.46476 3.99295 4.60543 3.99295 3.61266C3.99295 2.62023 4.34898 1.76078 5.05141 1.05823C5.75385 0.356024 6.6133 0 7.60585 0C8.59863 0 9.45796 0.356024 10.1603 1.05835C10.8626 1.76067 11.2188 2.62011 11.2188 3.61266C11.2188 4.60543 10.8626 5.46488 10.1602 6.1672C9.45773 6.8694 8.59828 7.22554 7.60585 7.22554Z"/>
            <path d="M1.28529 11.5342C1.30554 11.2419 1.34651 10.9231 1.40682 10.5864C1.4677 10.2472 1.5461 9.92656 1.63994 9.63347C1.73687 9.33055 1.86871 9.0314 2.03167 8.74473C2.20081 8.44718 2.39948 8.18809 2.62241 7.97489C2.85553 7.75184 3.14095 7.57252 3.47099 7.44171C3.7999 7.31159 4.16439 7.24567 4.55429 7.24567C4.70741 7.24567 4.8555 7.3085 5.14149 7.4947C5.3175 7.60948 5.52338 7.74223 5.75317 7.88906C5.94967 8.01426 6.21586 8.13156 6.54465 8.23776C6.86543 8.34156 7.19112 8.3942 7.51259 8.3942C7.83405 8.3942 8.15964 8.34156 8.48076 8.23776C8.8092 8.13167 9.07539 8.01437 9.27166 7.88917C9.49928 7.74372 9.70528 7.61097 9.88392 7.49458C10.1696 7.30839 10.3178 7.24556 10.4709 7.24556C10.8609 7.24556 11.2253 7.31159 11.5541 7.44183C11.8839 7.5724 12.1694 7.75173 12.4028 7.975C12.6256 8.18832 12.8244 8.4473 12.9933 8.74473C13.1561 9.0314 13.288 9.33044 13.385 9.63359C13.4787 9.92667 13.5571 10.2472 13.618 10.5864C13.6783 10.9226 13.7193 11.2416 13.7395 11.5346C13.7595 11.8216 13.7695 12.1195 13.7695 12.4203C13.7695 13.2033 13.5206 13.8372 13.0298 14.3047C12.545 14.766 11.9036 15 11.1235 15H3.90095C3.12092 15 2.47971 14.7661 1.99482 14.3047C1.50387 13.8376 1.25496 13.2036 1.25496 12.4202C1.25507 12.118 1.26526 11.8199 1.28529 11.5342Z"/>
        </g>
    </symbol>

    <symbol id="globe" viewBox="0 0 18 18">
        <path d="M8.98979 0.0012207C8.66714 0.0012207 8.34471 0.0185661 8.0239 0.0531442C7.72985 0.0831795 7.43941 0.132437 7.15287 0.192208C7.09742 0.203809 7.04193 0.216048 6.98648 0.228851C5.29823 0.613227 3.75667 1.4764 2.54667 2.71487C2.43415 2.83021 2.32399 2.94896 2.21628 3.07109C-1.05231 6.82355 -0.660049 12.5152 3.09244 15.7838C6.68496 18.9131 12.0926 18.7049 15.4339 15.3087C15.5466 15.1933 15.6568 15.0746 15.7643 14.9524C17.2068 13.3097 18.0017 11.1979 18.0004 9.01177C18.0004 4.03534 13.9662 0.00118316 8.98979 0.0012207ZM2.94704 3.1654C2.99449 3.11614 3.04375 3.06899 3.09211 3.02123C3.14797 2.96627 3.20354 2.911 3.2606 2.85784C3.31076 2.81098 3.36242 2.76593 3.41378 2.72028C3.47175 2.66892 3.52942 2.61756 3.58889 2.568C3.64115 2.52385 3.69491 2.4815 3.74838 2.43885C3.80845 2.39079 3.86852 2.34273 3.93039 2.29648C3.98505 2.25533 4.04062 2.21538 4.09649 2.17634C4.15866 2.13189 4.22113 2.08623 4.28451 2.04478C4.34127 2.00634 4.39864 1.9691 4.45631 1.93215C4.52058 1.891 4.58516 1.85046 4.65034 1.81201C4.70902 1.77698 4.76807 1.74252 4.82754 1.70869C4.89403 1.67084 4.96079 1.6339 5.02788 1.59786C5.08795 1.56583 5.14802 1.53448 5.20809 1.50385C5.27657 1.46931 5.34565 1.43597 5.41503 1.40323C5.4751 1.3747 5.53758 1.34616 5.59945 1.31913C5.67003 1.2891 5.74152 1.25906 5.813 1.22903C5.87517 1.2035 5.93705 1.17857 5.99982 1.15454C6.07251 1.12691 6.14609 1.10108 6.21968 1.07525C6.28245 1.05332 6.34523 1.03139 6.4089 1.01067C6.48369 0.986641 6.55908 0.964415 6.63477 0.942489C6.69814 0.924168 6.76091 0.905245 6.82459 0.888125C6.84892 0.881818 6.87325 0.876712 6.89757 0.870404C6.00853 1.73366 5.34877 2.80501 4.97802 3.98747C4.26513 3.79945 3.575 3.53386 2.92 3.19544C2.92992 3.18492 2.93833 3.17441 2.94704 3.1654ZM2.51513 3.64897C3.23661 4.03988 4.00169 4.34436 4.79451 4.55604C4.40585 5.90747 4.20183 7.30528 4.18809 8.71142H0.586865C0.652304 6.85715 1.33039 5.07688 2.51513 3.64897ZM2.51513 14.3746C1.33046 12.9466 0.652379 11.1664 0.586865 9.31212H4.18809C4.20183 10.7183 4.40581 12.1161 4.79451 13.4675C4.00172 13.6793 3.23665 13.9837 2.51513 14.3746ZM6.82279 17.1366C6.76212 17.1213 6.69934 17.1015 6.63687 17.0832C6.56088 17.0609 6.48459 17.0387 6.4095 17.0144C6.34613 16.9939 6.28365 16.972 6.22118 16.9501C6.14729 16.9246 6.07341 16.8984 6.00042 16.8705C5.93795 16.8468 5.87638 16.8218 5.8145 16.7966C5.74272 16.7666 5.67093 16.7365 5.59975 16.7065C5.53848 16.6795 5.47751 16.6517 5.41684 16.623C5.34685 16.59 5.27717 16.5563 5.20659 16.5215C5.14652 16.4915 5.08645 16.4614 5.02638 16.4287C4.9585 16.3923 4.89122 16.3551 4.82394 16.3167C4.76387 16.2833 4.7068 16.2491 4.64883 16.2142C4.58276 16.1746 4.51788 16.1337 4.453 16.092C4.39594 16.0556 4.33887 16.0187 4.2827 15.9809C4.21873 15.9376 4.15535 15.8926 4.09258 15.8475C4.03762 15.8082 3.98265 15.7688 3.92859 15.7274C3.86642 15.6805 3.80544 15.6321 3.74477 15.5835C3.69161 15.5411 3.63875 15.4991 3.58679 15.4555C3.52672 15.4057 3.46875 15.3537 3.41048 15.3021C3.35942 15.2567 3.30806 15.212 3.2582 15.1657C3.20083 15.1122 3.14527 15.0567 3.0894 15.0017C3.04105 14.954 2.99179 14.9068 2.94433 14.8578C2.93562 14.8485 2.92721 14.8389 2.9185 14.8299C3.57346 14.4913 4.26359 14.2256 4.97652 14.0376C5.34734 15.22 6.00707 16.2913 6.89607 17.1546C6.87174 17.1483 6.84712 17.1432 6.82279 17.1366ZM8.68948 17.3979C7.40427 17.2153 6.27765 15.8739 5.56881 13.8931C6.59362 13.6636 7.63941 13.5405 8.68948 13.5258V17.3979ZM8.68948 12.9251C7.57555 12.9397 6.46631 13.072 5.38019 13.3197C5.00306 12.0167 4.80412 10.6686 4.7888 9.31212H8.68948V12.9251ZM8.68948 8.71142H4.7888C4.80408 7.35499 5.00302 6.00685 5.38019 4.70381C6.46631 4.95149 7.57558 5.08379 8.68948 5.09847V8.71142ZM8.68948 4.49777C7.63937 4.48312 6.59362 4.36002 5.56881 4.13043C6.27765 2.14961 7.40427 0.808231 8.68948 0.625617V4.49777ZM15.4645 3.64897C16.6492 5.07692 17.3273 6.85719 17.3928 8.71142H13.7916C13.7778 7.30528 13.5739 5.90747 13.1852 4.55604C13.9779 4.34425 14.743 4.0398 15.4645 3.64897ZM11.1545 0.886624C11.2175 0.902242 11.2803 0.922065 11.3428 0.940387C11.4188 0.962613 11.4951 0.984839 11.5702 1.00917C11.6335 1.02959 11.696 1.05152 11.7585 1.07344C11.8324 1.09897 11.9063 1.1251 11.9792 1.15304C12.0417 1.17676 12.1033 1.20169 12.1652 1.22692C12.2369 1.25696 12.3087 1.28699 12.3799 1.31703C12.4412 1.34406 12.5022 1.37188 12.5628 1.40053C12.6328 1.43357 12.7025 1.46721 12.7731 1.50205C12.8331 1.53208 12.8932 1.56212 12.9533 1.59486C13.0212 1.6312 13.0884 1.66844 13.1557 1.70689C13.2158 1.74023 13.2729 1.77447 13.3308 1.80931C13.3969 1.84895 13.4618 1.8898 13.5267 1.93155C13.5837 1.96789 13.6408 2.00484 13.697 2.04268C13.7609 2.08593 13.824 2.13069 13.8868 2.17574C13.942 2.21508 13.997 2.25473 14.0514 2.29588C14.1132 2.34243 14.1739 2.39079 14.2349 2.43945C14.2878 2.4815 14.3409 2.52355 14.3929 2.5674C14.4529 2.61726 14.5109 2.66922 14.5692 2.72088C14.6202 2.76623 14.6716 2.81098 14.7215 2.85724C14.7788 2.9107 14.8344 2.96627 14.8903 3.02123C14.9386 3.06899 14.9879 3.11614 15.0353 3.1651C15.044 3.17441 15.0525 3.18402 15.0612 3.19303C14.4062 3.53161 13.7161 3.79731 13.0031 3.98536C12.6316 2.8028 11.971 1.73155 11.0812 0.868602C11.1055 0.87491 11.1301 0.880016 11.1545 0.886624ZM9.29018 0.625617C10.5754 0.808231 11.702 2.14961 12.4108 4.13043C11.386 4.3599 10.3403 4.48301 9.29018 4.49777V0.625617ZM9.29018 5.09847C10.4041 5.08383 11.5134 4.95152 12.5995 4.70381C12.9766 6.00685 13.1755 7.35499 13.1909 8.71142H9.29018V5.09847ZM9.29018 9.31212H13.1909C13.1756 10.6686 12.9766 12.0167 12.5995 13.3197C11.5134 13.0721 10.4041 12.9397 9.29018 12.9251V9.31212ZM9.29018 17.3979V13.5258C10.3403 13.5404 11.386 13.6635 12.4108 13.8931C11.702 15.8739 10.5754 17.2153 9.29018 17.3979ZM15.0326 14.8581C14.9852 14.9071 14.9362 14.9543 14.8879 15.002C14.832 15.057 14.7761 15.1125 14.7188 15.166C14.6689 15.2126 14.6175 15.2561 14.5665 15.3027C14.5082 15.3543 14.4502 15.406 14.3908 15.4558C14.3382 15.4997 14.2847 15.542 14.2313 15.5847C14.1712 15.6327 14.1111 15.6808 14.0493 15.7271C13.9946 15.7682 13.939 15.8082 13.8832 15.8472C13.821 15.8917 13.7585 15.9373 13.6952 15.9788C13.6384 16.0172 13.581 16.0544 13.5234 16.0911C13.4591 16.1325 13.3943 16.1726 13.329 16.2112C13.269 16.2464 13.2116 16.2806 13.1524 16.3146C13.0859 16.3524 13.0191 16.3893 12.9518 16.4254C12.8917 16.4574 12.8316 16.4888 12.7716 16.5194C12.7031 16.5539 12.634 16.5873 12.5646 16.62C12.5046 16.6485 12.4421 16.6771 12.3802 16.7041C12.3096 16.7341 12.2381 16.7642 12.1667 16.7942C12.1045 16.8194 12.0426 16.8447 11.9801 16.8684C11.9069 16.8963 11.8333 16.9225 11.7594 16.948C11.6969 16.9699 11.6344 16.9918 11.5711 17.0123C11.496 17.0366 11.4209 17.0588 11.3443 17.0808C11.2815 17.0994 11.2184 17.118 11.1551 17.1351C11.1307 17.1414 11.1064 17.1465 11.0821 17.1528C11.9711 16.2896 12.6309 15.2182 13.0016 14.0358C13.7145 14.2238 14.4047 14.4894 15.0597 14.8278C15.0497 14.8386 15.0413 14.8491 15.0326 14.8581ZM15.4645 14.3746C14.743 13.9837 13.978 13.6792 13.1852 13.4675C13.5738 12.1161 13.7778 10.7183 13.7916 9.31212H17.3928C17.3274 11.1664 16.6493 12.9467 15.4645 14.3746Z"/>
    </symbol>

    <symbol id="arrow-top" viewBox="0 0 13 7">
        <rect y="5.96036" width="8.42922" height="1.47026" rx="0.73513" transform="rotate(-45 0 5.96036)"/>
        <rect x="6.08984" y="1.52588e-05" width="8.42922" height="1.47026" rx="0.73513"
              transform="rotate(45 6.08984 1.52588e-05)"/>
    </symbol>

    <symbol id="arrow-bottom2" viewBox="0 0 13 7">
        <rect x="13" y="1.03964" width="8.42923" height="1.47026" rx="0.73513" transform="rotate(135 13 1.03964)"/>
        <rect x="6.91016" y="7" width="8.42923" height="1.47026" rx="0.73513" transform="rotate(-135 6.91016 7)"/>
    </symbol>


    <symbol id="arrow-bottom" viewBox="0 0 10 5">
        <path d="M9.6662 0.779973C9.66654 0.879569 9.64456 0.977976 9.60187 1.06796C9.55919 1.15795 9.49688 1.23723 9.41953 1.29997L5.41953 4.51997C5.30024 4.61803 5.15062 4.67163 4.9962 4.67163C4.84178 4.67163 4.69215 4.61803 4.57287 4.51997L0.572866 1.18664C0.436722 1.07348 0.351105 0.910873 0.334852 0.734589C0.318599 0.558304 0.37304 0.382783 0.486199 0.246639C0.599358 0.110495 0.761966 0.024879 0.93825 0.00862551C1.11453 -0.00762749 1.29005 0.0468135 1.4262 0.159973L4.99953 3.13997L8.57287 0.259973C8.67072 0.178451 8.78988 0.126666 8.91625 0.110746C9.04261 0.0948267 9.1709 0.115438 9.28592 0.170142C9.40094 0.224846 9.49788 0.311352 9.56527 0.419426C9.63266 0.527499 9.66769 0.652617 9.6662 0.779973Z"/>
    </symbol>

    <symbol id="arrow-right" viewBox="0 0 21 11">
        <path d="M20.7594 4.9194C20.7592 4.91915 20.759 4.91886 20.7587 4.91862L16.4724 0.652996C16.1513 0.333443 15.6319 0.334632 15.3122 0.655785C14.9926 0.976896 14.9939 1.49628 15.315 1.81587L18.1928 4.67974H0.820312C0.367254 4.67974 0 5.047 0 5.50006C0 5.95311 0.367254 6.32037 0.820312 6.32037H18.1928L15.315 9.18424C14.9939 9.50383 14.9927 10.0232 15.3123 10.3443C15.6319 10.6655 16.1513 10.6666 16.4724 10.3471L20.7587 6.08149C20.759 6.08125 20.7592 6.08096 20.7594 6.08071C21.0807 5.76005 21.0797 5.23899 20.7594 4.9194Z"/>
    </symbol>

    <symbol id="arrow-right2" viewBox="0 0 7 13">
        <rect x="1.03906" width="8.42923" height="1.47026" rx="0.73513" transform="rotate(45 1.03906 0)"/>
        <rect x="7" y="6.09082" width="8.42923" height="1.47026" rx="0.73513" transform="rotate(135 7 6.09082)"/>
    </symbol>


    <symbol id="chat" viewBox="0 0 26 24">
        <path d="M4.33177 10.0348H9.9651C10.2047 10.0348 10.3984 9.8407 10.3984 9.6015C10.3984 9.3623 10.2047 9.16817 9.9651 9.16817H4.33177C4.09214 9.16817 3.89844 9.3623 3.89844 9.6015C3.89844 9.8407 4.09214 10.0348 4.33177 10.0348Z"/>
        <path d="M15.5984 11.7682H4.33177C4.09214 11.7682 3.89844 11.9623 3.89844 12.2015C3.89844 12.4407 4.09214 12.6348 4.33177 12.6348H15.5984C15.8381 12.6348 16.0318 12.4407 16.0318 12.2015C16.0318 11.9623 15.8381 11.7682 15.5984 11.7682Z"/>
        <path d="M15.5984 14.3682H4.33177C4.09214 14.3682 3.89844 14.5623 3.89844 14.8015C3.89844 15.0407 4.09214 15.2348 4.33177 15.2348H15.5984C15.8381 15.2348 16.0318 15.0407 16.0318 14.8015C16.0318 14.5623 15.8381 14.3682 15.5984 14.3682Z"/>
        <path d="M23.4312 0.0984944L8.63633 0.068161C7.21933 0.068161 6.06667 1.22083 6.06667 2.63783V4.85823L2.56967 4.86559C1.15267 4.86559 0 6.01826 0 7.43526V16.5964C0 18.0134 1.15267 19.1656 2.56967 19.1656H5.2V23.4989C5.2 23.6779 5.31007 23.8387 5.47733 23.9032C5.52803 23.9227 5.5809 23.9323 5.63333 23.9323C5.75293 23.9323 5.87037 23.8824 5.954 23.7906L10.1591 19.1647L17.3637 19.1353C18.7807 19.1353 19.9333 17.9826 19.9333 16.566V16.5171L22.2127 19.0243C22.2963 19.1162 22.4137 19.166 22.5333 19.166C22.5858 19.166 22.6386 19.1565 22.6893 19.137C22.8566 19.0724 22.9667 18.9117 22.9667 18.7327V14.3994H23.4303C24.8473 14.3994 26 13.2467 26 11.8301V2.66816C26 1.25159 24.8478 0.0989278 23.4312 0.0984944ZM19.0667 16.5656C19.0667 17.5046 18.3027 18.2682 17.3619 18.2682L9.96493 18.2985C9.8436 18.2989 9.72747 18.3505 9.646 18.4402L6.06667 22.3779V18.7318C6.06667 18.4926 5.87297 18.2985 5.63333 18.2985H2.56967C1.63063 18.2985 0.866667 17.5345 0.866667 16.5959V7.43483C0.866667 6.49579 1.63063 5.73183 2.57053 5.73183L6.5 5.72359C6.50043 5.72359 6.50043 5.72359 6.50087 5.72359L17.3637 5.70106C18.3027 5.70106 19.0667 6.46503 19.0667 7.40406V15.3952V16.5656ZM25.1333 11.8293C25.1333 12.7683 24.3694 13.5318 23.4303 13.5318H22.5333C22.2937 13.5318 22.1 13.726 22.1 13.9652V17.6112L19.9333 15.2279V7.40449C19.9333 5.98749 18.7807 4.83483 17.3628 4.83483L6.93333 4.85606V2.63739C6.93333 1.69836 7.6973 0.934394 8.63547 0.934394L23.4299 0.964728C23.4303 0.964728 23.4303 0.964728 23.4308 0.964728C24.3698 0.964728 25.1338 1.72869 25.1338 2.66773V11.8293H25.1333Z"/>
    </symbol>


    <symbol id="badge" viewBox="0 0 20 22">
        <path d="M18.1561 14.2657H13.4296V12.1172C13.4296 11.4064 12.8513 10.8282 12.1405 10.8282H7.84369C7.13291 10.8282 6.55464 11.4064 6.55464 12.1172V12.5469H1.82811C1.11733 12.5469 0.539062 13.1252 0.539062 13.836V21.5703C0.539062 21.8077 0.731432 22 0.968747 22H19.0155C19.2528 22 19.4452 21.8077 19.4452 21.5703V15.5547C19.4452 14.8439 18.8669 14.2657 18.1561 14.2657ZM12.5702 21.1406H7.41401V20.0663C7.41401 19.829 7.22164 19.6366 6.98432 19.6366C6.74701 19.6366 6.55464 19.829 6.55464 20.0663V21.1406H1.39843V13.8359C1.39843 13.599 1.59119 13.4063 1.82811 13.4063H6.55464V16.1991C6.55464 16.4364 6.74701 16.6288 6.98432 16.6288C7.22164 16.6288 7.41401 16.4364 7.41401 16.1991V12.1172C7.41401 11.8802 7.60676 11.6875 7.84369 11.6875H12.1405C12.3775 11.6875 12.5702 11.8802 12.5702 12.1172V21.1406ZM18.5858 21.1407H13.4296V15.125H18.1561C18.393 15.125 18.5858 15.3178 18.5858 15.5547V21.1407Z"/>
        <path d="M17.0831 17.2735C17.0831 16.5627 16.5066 15.9845 15.798 15.9845C15.4221 15.9845 15.0663 16.1488 14.8217 16.4353C14.6676 16.6158 14.689 16.887 14.8694 17.0412C15.0499 17.1952 15.3211 17.1739 15.4752 16.9934C15.5563 16.8984 15.674 16.8439 15.798 16.8439C16.0327 16.8439 16.2237 17.0366 16.2237 17.2736C16.2237 17.3903 16.178 17.4995 16.0952 17.5811C16.0035 17.6714 15.9571 17.7979 15.9687 17.926C15.9803 18.0541 16.0486 18.1703 16.155 18.2426C16.3319 18.363 16.4375 18.5629 16.4375 18.7775C16.4375 19.1329 16.1506 19.422 15.798 19.422C15.6565 19.422 15.5226 19.3764 15.4105 19.2902C15.2224 19.1455 14.9527 19.1807 14.8079 19.3688C14.6632 19.5568 14.6984 19.8266 14.8865 19.9714C15.1501 20.1742 15.4653 20.2814 15.798 20.2814C16.6245 20.2814 17.2969 19.6068 17.2969 18.7775C17.2969 18.4264 17.1752 18.092 16.9595 17.8268C17.0404 17.6563 17.0831 17.4683 17.0831 17.2735Z"/>
        <path d="M4.83581 17.7033H3.80039C3.89505 17.6162 4.01365 17.5231 4.15205 17.4163C4.64348 17.0371 5.25501 16.5652 5.26546 15.6764C5.2731 15.0236 4.85558 14.4598 4.2501 14.3054C3.67127 14.1578 3.10688 14.4213 2.81228 14.9766C2.70108 15.1863 2.78091 15.4464 2.99056 15.5576C3.20025 15.6688 3.46029 15.5889 3.5715 15.3793C3.71785 15.1033 3.92646 15.1098 4.03775 15.1381C4.22368 15.1855 4.40969 15.3673 4.40617 15.6663C4.40101 16.1073 4.10839 16.3646 3.62714 16.7359C3.18671 17.0757 2.6875 17.4609 2.6875 18.1329C2.6875 18.3703 2.87987 18.5626 3.11719 18.5626H4.83581C5.07313 18.5626 5.2655 18.3703 5.2655 18.1329C5.2655 17.8956 5.07313 17.7033 4.83581 17.7033Z"/>
        <path d="M10.4685 15.9844H10.4218V12.9766C10.4218 12.8231 10.3399 12.6813 10.2069 12.6045C10.074 12.5278 9.91024 12.5278 9.77725 12.6045L9.30086 12.8796C9.09534 12.9982 9.02491 13.261 9.14359 13.4665C9.23142 13.6186 9.39831 13.6966 9.56241 13.6789V15.9844H9.5157C9.27838 15.9844 9.08601 16.1768 9.08601 16.4141C9.08601 16.6514 9.27838 16.8438 9.5157 16.8438H10.4685C10.7058 16.8438 10.8982 16.6514 10.8982 16.4141C10.8982 16.1768 10.7058 15.9844 10.4685 15.9844Z"/>
        <path d="M7.09955 6.3211L6.88415 7.96344C6.83908 8.20049 6.87109 8.44026 6.97709 8.65794C7.16967 9.05342 7.567 9.28381 7.97989 9.28381C8.14321 9.28381 8.30907 9.24772 8.46547 9.17154L9.97586 8.43635L11.5277 9.17566C11.7233 9.26899 11.9416 9.30238 12.1592 9.2723C12.4535 9.23161 12.7144 9.07873 12.8937 8.8418C13.073 8.60487 13.1493 8.31234 13.1086 8.01745L12.8758 6.35186L14.0224 5.14248C14.1948 4.97748 14.3074 4.76611 14.3485 4.53035C14.3997 4.23739 14.3337 3.94207 14.1627 3.69874C13.9917 3.45541 13.7362 3.29324 13.4443 3.24228L11.7891 2.94907L10.9686 1.43963C10.9686 1.43954 10.9685 1.4395 10.9685 1.43941C10.8644 1.2482 10.7077 1.09296 10.5154 0.99035C10.2535 0.850703 9.95291 0.821355 9.66893 0.907765C9.385 0.994174 9.15168 1.18603 9.0119 1.44809L8.22163 2.93158L6.55896 3.24052C6.33347 3.27614 6.1273 3.37866 5.96218 3.53748C5.74811 3.74338 5.62707 4.02035 5.62131 4.31735C5.61555 4.61435 5.72581 4.89579 5.93206 5.11021L7.09955 6.3211ZM6.55798 4.15687C6.60597 4.11067 6.659 4.09452 6.69496 4.0891C6.69986 4.08837 6.70471 4.08756 6.70957 4.08665L8.58209 3.7387C8.71065 3.71481 8.82134 3.63368 8.88283 3.51827L9.77029 1.85234C9.80192 1.793 9.85481 1.74952 9.91918 1.72992C9.94342 1.72253 9.96821 1.71888 9.99283 1.71888C10.0336 1.71888 10.074 1.72889 10.111 1.74861C10.1547 1.7719 10.1902 1.80705 10.2137 1.85023L11.133 3.54126C11.1954 3.65615 11.3068 3.73633 11.4356 3.75915L13.2956 4.08863C13.3624 4.10028 13.4207 4.13727 13.4597 4.19279C13.4987 4.2483 13.5137 4.31568 13.5021 4.38258C13.49 4.45189 13.4538 4.49786 13.4255 4.5242C13.4191 4.53017 13.4129 4.53636 13.4068 4.54272L12.1099 5.91071C12.0199 6.00558 11.9781 6.13629 11.9961 6.2658L12.2574 8.1357C12.2667 8.20264 12.2494 8.26916 12.2085 8.32304C12.1678 8.37688 12.1085 8.41168 12.0416 8.42092C11.9911 8.42793 11.9413 8.42066 11.8977 8.39987L10.1587 7.57144C10.0406 7.51519 9.90341 7.51579 9.78585 7.57303L8.08937 8.39879C7.96343 8.4602 7.81106 8.4076 7.74975 8.28162C7.71847 8.21738 7.72135 8.15808 7.72925 8.11963C7.73136 8.1094 7.73308 8.09913 7.73445 8.08878L7.97856 6.2276C7.99557 6.09796 7.9526 5.96764 7.86185 5.8735L6.5511 4.51402C6.50435 4.46538 6.4793 4.40144 6.48059 4.33394C6.48188 4.26656 6.50934 4.20361 6.55798 4.15687Z"/>
        <path d="M3.2657 0.801933L4.96185 1.78119C5.02953 1.82029 5.10339 1.83885 5.17631 1.83885C5.32481 1.83885 5.46922 1.76177 5.5488 1.62393C5.66748 1.41841 5.59706 1.15561 5.39154 1.03697L3.69539 0.0577145C3.48991 -0.0609652 3.22707 0.00946055 3.10843 0.21498C2.98975 0.4205 3.06018 0.683296 3.2657 0.801933Z"/>
        <path d="M2.02685 5.95321C2.04743 5.95321 2.06827 5.95171 2.08928 5.9487L4.02739 5.6667C4.26221 5.63254 4.42489 5.41443 4.39073 5.1796C4.35653 4.94478 4.13859 4.78214 3.90364 4.81626L1.96553 5.09826C1.73071 5.13242 1.56803 5.35053 1.60219 5.58536C1.63334 5.79921 1.81695 5.95321 2.02685 5.95321Z"/>
        <path d="M4.97948 8.56776L3.59459 9.95264C3.4268 10.1204 3.4268 10.3925 3.59459 10.5603C3.67851 10.6443 3.78847 10.6862 3.89843 10.6862C4.00838 10.6862 4.11838 10.6443 4.20226 10.5603L5.58714 9.17546C5.75494 9.00767 5.75494 8.73559 5.58714 8.56776C5.41935 8.39992 5.14727 8.39996 4.97948 8.56776Z"/>
        <path d="M14.8051 1.83883C14.878 1.83883 14.9519 1.82023 15.0196 1.78117L16.7158 0.801912C16.9213 0.683275 16.9917 0.420478 16.873 0.214959C16.7543 0.00939643 16.4916 -0.0609864 16.2861 0.0576933L14.5899 1.03695C14.3844 1.15559 14.314 1.41838 14.4327 1.6239C14.5122 1.76175 14.6566 1.83883 14.8051 1.83883Z"/>
        <path d="M15.5944 5.17959C15.5602 5.41442 15.7229 5.63253 15.9577 5.66669L17.8958 5.94869C17.9168 5.95174 17.9376 5.9532 17.9583 5.9532C18.1682 5.9532 18.3518 5.7992 18.3829 5.5853C18.4171 5.35048 18.2544 5.13237 18.0196 5.09821L16.0815 4.81621C15.8468 4.78218 15.6285 4.94477 15.5944 5.17959Z"/>
        <path d="M14.3954 8.5678C14.2276 8.73559 14.2276 9.00767 14.3954 9.17551L15.7803 10.5604C15.8642 10.6443 15.9741 10.6862 16.0841 10.6862C16.194 10.6862 16.304 10.6443 16.3879 10.5604C16.5557 10.3926 16.5557 10.1205 16.3879 9.95268L15.003 8.5678C14.8353 8.40001 14.5632 8.40001 14.3954 8.5678Z"/>
        <path d="M6.98438 17.703C6.74706 17.703 6.55469 17.8955 6.55469 18.1328C6.55469 18.3701 6.74706 18.5625 6.98438 18.5625C7.22169 18.5625 7.41406 18.3701 7.41406 18.1328V18.1325C7.41406 17.8952 7.22169 17.703 6.98438 17.703Z"/>
    </symbol>

    <symbol id="medal" viewBox="0 0 18 23">
        <path d="M17.0336 6.29083C16.5819 5.85183 16.3305 5.268 16.3305 4.64345C16.3305 2.95533 14.915 1.5795 13.1781 1.5795C12.5402 1.5795 11.9349 1.3351 11.4832 0.896104C10.2539 -0.298701 8.25634 -0.298701 7.02705 0.896104C6.57539 1.3351 5.97471 1.5795 5.33213 1.5795C3.5953 1.5795 2.17976 2.95533 2.17976 4.64345C2.17976 5.26348 1.93298 5.85183 1.47665 6.29083C0.880634 6.87013 0.554688 7.63951 0.554688 8.45868C0.554688 9.27784 0.880634 10.0472 1.47665 10.6265C1.92832 11.0655 2.17976 11.6494 2.17976 12.2739C2.17976 13.6633 3.13432 14.8355 4.43811 15.2111L2.60815 21.855L5.36938 20.3615L6.9898 23L8.68007 16.8676C8.87098 16.8993 9.06189 16.9174 9.2528 16.9174C9.44372 16.9174 9.63463 16.8993 9.82554 16.8676L11.5205 22.9955L13.1409 20.3569L15.9021 21.8505L14.0722 15.2066C15.3759 14.831 16.3305 13.6588 16.3305 12.2694C16.3305 11.6494 16.5819 11.061 17.0336 10.622C18.2629 9.43172 18.2629 7.48564 17.0336 6.29083ZM6.72905 21.1263L5.64877 19.3703L3.8095 20.366L5.1971 15.3333C5.24832 15.3379 5.29488 15.3379 5.34144 15.3379C5.97937 15.3379 6.5847 15.5823 7.03637 16.0213C7.11087 16.0937 7.18537 16.157 7.26453 16.2204C7.28781 16.2385 7.31109 16.2566 7.33438 16.2747C7.39025 16.3154 7.44613 16.3562 7.50666 16.3969C7.53926 16.4195 7.57651 16.4376 7.6091 16.4603C7.66032 16.4874 7.70689 16.5191 7.75811 16.5462C7.80001 16.5689 7.84658 16.5915 7.88848 16.6096C7.90711 16.6187 7.93505 16.6322 7.96299 16.6413L6.72905 21.1263ZM14.7147 20.366L12.8755 19.3703L11.7952 21.1263L10.5612 16.6413C10.5892 16.6277 10.6125 16.6141 10.6404 16.6051C10.687 16.5824 10.7289 16.5643 10.7754 16.5372C10.8267 16.51 10.8732 16.4829 10.9198 16.4557C10.957 16.4331 10.9896 16.415 11.0269 16.3924C11.0828 16.3562 11.134 16.3154 11.1899 16.2747C11.2178 16.2566 11.2457 16.2385 11.269 16.2159C11.3482 16.1525 11.4227 16.0891 11.4972 16.0167C11.9488 15.5777 12.5495 15.3333 13.1921 15.3333C13.2294 15.3379 13.2759 15.3333 13.3271 15.3333L14.7147 20.366ZM16.4981 10.1061C15.9021 10.6854 15.5762 11.4547 15.5762 12.2739C15.5762 13.3963 14.7566 14.3331 13.6671 14.5549L13.546 14.573C13.4808 14.5821 13.4249 14.5911 13.3644 14.5956C13.3039 14.6002 13.2387 14.6047 13.1781 14.6047C12.8615 14.6047 12.5542 14.6499 12.2608 14.7359C11.7719 14.8808 11.3202 15.1387 10.9524 15.5008C10.8872 15.5641 10.822 15.6185 10.7522 15.6728C10.7289 15.6909 10.7056 15.7044 10.6823 15.7226C10.6357 15.7588 10.5845 15.7904 10.5333 15.8221C10.51 15.8357 10.4821 15.8538 10.4541 15.8674C10.3983 15.8991 10.3424 15.9262 10.2865 15.9534C10.2632 15.9624 10.2446 15.9715 10.2213 15.985C10.1515 16.0167 10.077 16.0439 10.0071 16.0665C9.99317 16.071 9.97454 16.0801 9.96057 16.0846L9.93263 16.0937C9.49494 16.2159 9.02464 16.2159 8.58694 16.0937L8.54969 16.0846C8.53572 16.0801 8.52641 16.0756 8.51244 16.071C8.43794 16.0484 8.36344 16.0167 8.28893 15.9896C8.27031 15.9805 8.24703 15.9715 8.2284 15.9624C8.16787 15.9353 8.11199 15.9036 8.05611 15.8719C8.03283 15.8583 8.00955 15.8447 7.98627 15.8312C7.93039 15.7995 7.87917 15.7633 7.82795 15.7271C7.80933 15.7135 7.78604 15.6999 7.76742 15.6818C7.69757 15.6275 7.63238 15.5687 7.56719 15.5098C7.19468 15.1478 6.74767 14.8898 6.25875 14.745C5.9654 14.659 5.65808 14.6137 5.34144 14.6137C5.27626 14.6137 5.21572 14.6092 5.15519 14.6047C5.09931 14.6002 5.03878 14.5911 4.97359 14.5821L4.85253 14.564C3.76293 14.3422 2.94341 13.4054 2.94341 12.283C2.94341 11.4638 2.61746 10.6944 2.02145 10.1151C1.56978 9.67611 1.31833 9.09229 1.31833 8.46773C1.31833 7.8477 1.56978 7.25935 2.02145 6.82035C2.61746 6.24105 2.94341 5.47166 2.94341 4.6525C2.94341 3.36718 4.01903 2.32625 5.33679 2.32625C6.17959 2.32625 6.97118 2.00945 7.56719 1.43015C8.03283 0.977568 8.64747 0.751279 9.26212 0.751279C9.87676 0.751279 10.4914 0.977568 10.957 1.43015C11.5531 2.00945 12.3446 2.32625 13.1874 2.32625C14.5099 2.32625 15.5808 3.3717 15.5808 4.6525C15.5808 5.47166 15.9068 6.24105 16.5028 6.82035C17.4341 7.72098 17.4341 9.19638 16.4981 10.1061Z"/>
        <path d="M9.25816 2.94629C6.12907 2.94629 3.58203 5.42189 3.58203 8.46321C3.58203 11.5045 6.12907 13.9756 9.25816 13.9756C12.3872 13.9756 14.9343 11.5 14.9343 8.45869C14.9343 5.41736 12.3872 2.94629 9.25816 2.94629ZM9.25816 13.2379C6.54814 13.2379 4.34102 11.0927 4.34102 8.45869C4.34102 5.82468 6.54814 3.67947 9.25816 3.67947C11.9682 3.67947 14.1753 5.82468 14.1753 8.45869C14.1753 11.0927 11.9682 13.2379 9.25816 13.2379Z"/>
        <path d="M9.25578 4.69775L8.41298 7.22314H5.67969L7.89147 8.78453L7.04866 11.3099L9.26044 9.74852L11.4722 11.3099L10.6248 8.78453L12.8365 7.22314H10.1032L9.25578 4.69775ZM10.0287 9.38646L9.25578 8.83884L8.48283 9.38646L8.77618 8.50393L8.00322 7.95631H8.95778L9.25113 7.07379L9.54448 7.95631H10.499L9.72608 8.50393L10.0287 9.38646Z"/>
    </symbol>

    <symbol id="online-course" viewBox="0 0 22 20">
        <path d="M10.9998 8.96557C10.9495 8.96557 10.8995 8.95453 10.8529 8.93281L4.9909 6.1742C4.87021 6.1173 4.79297 5.99558 4.79297 5.86213C4.79297 5.72868 4.87021 5.60696 4.9909 5.55006L10.8529 2.79145C10.9461 2.74766 11.0536 2.74766 11.1467 2.79145L17.0088 5.55006C17.1295 5.60696 17.2067 5.72868 17.2067 5.86213C17.2067 5.99558 17.1295 6.1173 17.0088 6.1742L11.1467 8.93281C11.1002 8.95453 11.0502 8.96557 10.9998 8.96557ZM5.94779 5.86213L10.9998 8.23971L16.0519 5.86213L10.9998 3.48455L5.94779 5.86213Z"/>
        <path d="M11.0023 11.7242C10.9495 11.7242 10.8964 11.7121 10.8481 11.688L6.71022 9.61901C6.59332 9.56039 6.51953 9.44108 6.51953 9.31039V6.67351C6.51953 6.55557 6.57988 6.44558 6.67953 6.38247C6.77919 6.31902 6.90436 6.31178 7.01091 6.36144L11.0023 8.23971L14.9933 6.36144C15.1002 6.31144 15.2254 6.31902 15.3247 6.38247C15.4247 6.44558 15.485 6.55557 15.485 6.67351V9.31039C15.485 9.44108 15.4112 9.56039 15.2943 9.61901L11.1564 11.688C11.1081 11.7121 11.055 11.7242 11.0023 11.7242ZM7.20918 9.09729L11.0023 10.9938L14.7954 9.09729V7.21695L11.1492 8.93281C11.0561 8.9766 10.9485 8.9766 10.8554 8.93281L7.20918 7.21695V9.09729Z"/>
        <path d="M16.8631 6.2069H11.0011C10.8107 6.2069 10.6562 6.05241 10.6562 5.86207C10.6562 5.67173 10.8107 5.51724 11.0011 5.51724H16.8631C17.0535 5.51724 17.2079 5.67173 17.2079 5.86207C17.2079 6.05241 17.0535 6.2069 16.8631 6.2069Z"/>
        <path d="M16.8644 9.31033C16.674 9.31033 16.5195 9.15585 16.5195 8.96551V5.86207C16.5195 5.67172 16.674 5.51724 16.8644 5.51724C17.0547 5.51724 17.2092 5.67172 17.2092 5.86207V8.96551C17.2092 9.15585 17.0547 9.31033 16.8644 9.31033Z"/>
        <path d="M11.0011 6.89659C10.8107 6.89659 10.6562 6.74211 10.6562 6.55177V5.17246C10.6562 4.98212 10.8107 4.82764 11.0011 4.82764C11.1914 4.82764 11.3459 4.98212 11.3459 5.17246V6.55177C11.3459 6.74211 11.1914 6.89659 11.0011 6.89659Z"/>
        <path d="M16.1726 10.3449C16.107 10.3449 16.0405 10.3263 15.9815 10.2869C15.8233 10.1814 15.7805 9.96729 15.886 9.80867L16.5757 8.77419C16.6812 8.61557 16.895 8.57247 17.0539 8.67867C17.2122 8.78419 17.255 8.99833 17.1495 9.15695L16.4598 10.1914C16.3933 10.2911 16.2839 10.3449 16.1726 10.3449Z"/>
        <path d="M17.5543 10.3449C17.4429 10.3449 17.3336 10.2911 17.2671 10.1914L16.5774 9.15695C16.4719 8.99867 16.5147 8.78419 16.6729 8.67867C16.8312 8.57247 17.0453 8.61557 17.1512 8.77419L17.8409 9.80867C17.9464 9.96694 17.9036 10.1814 17.7453 10.2869C17.6864 10.3263 17.6198 10.3449 17.5543 10.3449Z"/>
        <path d="M11.0011 10C10.8107 10 10.6562 9.84556 10.6562 9.65521V8.62074C10.6562 8.43039 10.8107 8.27591 11.0011 8.27591C11.1914 8.27591 11.3459 8.43039 11.3459 8.62074V9.65521C11.3459 9.84556 11.1914 10 11.0011 10Z"/>
        <path d="M21.001 13.1034H1.00108C0.810732 13.1034 0.65625 12.949 0.65625 12.7586V1.37968C0.65625 0.618994 1.27521 3.05176e-05 2.0359 3.05176e-05H19.9662C20.7269 3.05176e-05 21.3458 0.618994 21.3458 1.37968V12.7586C21.3458 12.949 21.1914 13.1034 21.001 13.1034ZM1.3459 12.4138H20.6562V1.37968C20.6562 0.998993 20.3469 0.689683 19.9662 0.689683H2.0359C1.65521 0.689683 1.3459 0.998993 1.3459 1.37968V12.4138Z"/>
        <path d="M19.9662 15.862H2.0359C1.27521 15.862 0.65625 15.2431 0.65625 14.4824V12.7586C0.65625 12.5683 0.810732 12.4138 1.00108 12.4138H21.001C21.1914 12.4138 21.3458 12.5683 21.3458 12.7586V14.4824C21.3458 15.2431 20.7269 15.862 19.9662 15.862ZM1.3459 13.1034V14.4824C1.3459 14.8631 1.65521 15.1724 2.0359 15.1724H19.9662C20.3469 15.1724 20.6562 14.8631 20.6562 14.4824V13.1034H1.3459Z"/>
        <path d="M12.0349 14.4828H9.96592C9.77558 14.4828 9.62109 14.3283 9.62109 14.1379C9.62109 13.9476 9.77558 13.7931 9.96592 13.7931H12.0349C12.2252 13.7931 12.3797 13.9476 12.3797 14.1379C12.3797 14.3283 12.2252 14.4828 12.0349 14.4828Z"/>
        <path d="M19.6213 13.1034H2.37998C2.18964 13.1034 2.03516 12.9489 2.03516 12.7585V1.7241C2.03516 1.53375 2.18964 1.37927 2.37998 1.37927H19.6213C19.8116 1.37927 19.9661 1.53375 19.9661 1.7241V12.7585C19.9661 12.9489 19.8116 13.1034 19.6213 13.1034ZM2.72481 12.4137H19.2765V2.06893H2.72481V12.4137Z"/>
        <path d="M15.4843 20H6.51885C5.94851 20 5.48438 19.5358 5.48438 18.9655C5.48438 18.3952 5.94851 17.931 6.51885 17.931H15.4843C16.0547 17.931 16.5188 18.3952 16.5188 18.9655C16.5188 19.5358 16.0547 20 15.4843 20ZM6.51885 18.6207C6.32885 18.6207 6.17403 18.7755 6.17403 18.9655C6.17403 19.1555 6.32885 19.3103 6.51885 19.3103H15.4843C15.6743 19.3103 15.8292 19.1555 15.8292 18.9655C15.8292 18.7755 15.6743 18.6207 15.4843 18.6207H6.51885Z"/>
        <path d="M14.7943 18.6207H7.20811C7.01776 18.6207 6.86328 18.4662 6.86328 18.2759C6.86328 18.0855 7.01776 17.931 7.20811 17.931C8.35224 17.931 8.93224 17.119 8.93224 15.5173C8.93224 15.3269 9.08672 15.1724 9.27707 15.1724H12.7253C12.9157 15.1724 13.0702 15.3269 13.0702 15.5173C13.0702 17.119 13.6502 17.931 14.7943 17.931C14.9846 17.931 15.1391 18.0855 15.1391 18.2759C15.1391 18.4662 14.9846 18.6207 14.7943 18.6207ZM8.88776 17.931H13.115C12.6902 17.4607 12.4402 16.7603 12.3902 15.8621H9.61258C9.56224 16.7603 9.31258 17.4607 8.88776 17.931Z"/>
    </symbol>


    <symbol id="online-webinar" viewBox="0 0 22 16">
        <path d="M19.668 -3.05176e-05H5.00131C4.61235 0.000515722 4.2358 0.136886 3.9367 0.385525C3.63759 0.634163 3.43471 0.979457 3.3631 1.36176C3.03245 1.42393 2.72827 1.58447 2.49037 1.82237C2.25247 2.06027 2.09193 2.36445 2.02976 2.6951C1.64746 2.76671 1.30216 2.96959 1.05352 3.2687C0.804885 3.5678 0.668515 3.94436 0.667969 4.33331V14.3333C0.668465 14.7752 0.844219 15.1988 1.15667 15.5113C1.46913 15.8237 1.89276 15.9995 2.33464 16H17.0013C17.3903 15.9995 17.7668 15.8631 18.0659 15.6144C18.3651 15.3658 18.5679 15.0205 18.6395 14.6382C18.9702 14.576 19.2744 14.4155 19.5123 14.1776C19.7502 13.9397 19.9107 13.6355 19.9729 13.3049C20.3552 13.2333 20.7005 13.0304 20.9491 12.7313C21.1978 12.4322 21.3341 12.0556 21.3347 11.6667V1.66664C21.3342 1.22476 21.1584 0.801128 20.846 0.488674C20.5335 0.17622 20.1099 0.000465756 19.668 -3.05176e-05ZM1.33464 4.33331C1.33493 4.06819 1.44039 3.814 1.62786 3.62653C1.81533 3.43906 2.06951 3.33361 2.33464 3.33331H17.0013C17.2665 3.33361 17.5206 3.43906 17.7081 3.62653C17.8956 3.814 18.001 4.06819 18.0013 4.33331V4.66665H1.33464V4.33331ZM18.0013 14.3333C18.001 14.5985 17.8956 14.8526 17.7081 15.0401C17.5206 15.2276 17.2665 15.333 17.0013 15.3333H2.33464C2.06951 15.333 1.81533 15.2276 1.62786 15.0401C1.44039 14.8526 1.33493 14.5985 1.33464 14.3333V5.33331H18.0013V14.3333ZM19.3347 13C19.3344 13.2067 19.2702 13.4083 19.1508 13.5771C19.0315 13.7458 18.8628 13.8735 18.668 13.9427V4.33331C18.6675 3.89144 18.4918 3.4678 18.1793 3.15535C17.8668 2.84289 17.4432 2.66714 17.0013 2.66664H2.72531C2.79443 2.47182 2.92214 2.30317 3.09091 2.18381C3.25969 2.06445 3.46126 2.00023 3.66797 1.99997H18.3347C18.5998 2.00027 18.854 2.10572 19.0414 2.2932C19.2289 2.48067 19.3344 2.73485 19.3347 2.99998V13ZM20.668 11.6667C20.6677 11.8734 20.6035 12.0749 20.4842 12.2437C20.3648 12.4125 20.1962 12.5402 20.0013 12.6093V2.99998C20.0008 2.5581 19.8251 2.13446 19.5126 1.82201C19.2002 1.50956 18.7765 1.3338 18.3347 1.33331H4.05864C4.12776 1.13849 4.25547 0.969832 4.42425 0.850472C4.59302 0.731113 4.79459 0.666898 5.00131 0.666637H19.668C19.9331 0.666935 20.1873 0.772388 20.3748 0.95986C20.5623 1.14733 20.6677 1.40151 20.668 1.66664V11.6667Z"/>
        <path d="M2.33333 4.33332C2.51743 4.33332 2.66667 4.18409 2.66667 3.99999C2.66667 3.8159 2.51743 3.66666 2.33333 3.66666C2.14924 3.66666 2 3.8159 2 3.99999C2 4.18409 2.14924 4.33332 2.33333 4.33332Z"/>
        <path d="M3.66927 4.33332C3.85337 4.33332 4.00261 4.18409 4.00261 3.99999C4.00261 3.8159 3.85337 3.66666 3.66927 3.66666C3.48518 3.66666 3.33594 3.8159 3.33594 3.99999C3.33594 4.18409 3.48518 4.33332 3.66927 4.33332Z"/>
        <path d="M5.0013 4.33332C5.1854 4.33332 5.33464 4.18409 5.33464 3.99999C5.33464 3.8159 5.1854 3.66666 5.0013 3.66666C4.81721 3.66666 4.66797 3.8159 4.66797 3.99999C4.66797 4.18409 4.81721 4.33332 5.0013 4.33332Z"/>
        <path d="M6.0013 12.3333H13.3347C13.4231 12.3333 13.5078 12.2981 13.5704 12.2356C13.6329 12.1731 13.668 12.0883 13.668 11.9999V6.66659C13.668 6.57818 13.6329 6.4934 13.5704 6.43088C13.5078 6.36837 13.4231 6.33325 13.3347 6.33325H6.0013C5.9129 6.33325 5.82811 6.36837 5.7656 6.43088C5.70309 6.4934 5.66797 6.57818 5.66797 6.66659V11.9999C5.66797 12.0883 5.70309 12.1731 5.7656 12.2356C5.82811 12.2981 5.9129 12.3333 6.0013 12.3333ZM6.33464 6.99992H13.0013V11.6666H6.33464V6.99992Z"/>
        <path d="M8.8388 9.95754C8.89057 9.98647 8.94912 10.0011 9.00841 9.99982C9.0677 9.99857 9.12559 9.98153 9.17609 9.95045L10.8011 8.95045C10.8496 8.92061 10.8896 8.87886 10.9174 8.82917C10.9451 8.77947 10.9597 8.7235 10.9597 8.66657C10.9597 8.60965 10.9451 8.55367 10.9174 8.50398C10.8896 8.45429 10.8496 8.41254 10.8011 8.3827L9.17609 7.3827C9.12559 7.35159 9.06769 7.33453 9.00839 7.33327C8.94908 7.33201 8.89051 7.34659 8.83873 7.37552C8.78694 7.40446 8.74382 7.44668 8.7138 7.49784C8.68378 7.54901 8.66796 7.60725 8.66797 7.66657V9.66658C8.66798 9.72589 8.68382 9.78412 8.71385 9.83527C8.74388 9.88641 8.78702 9.92862 8.8388 9.95754ZM9.33464 8.26307L9.9903 8.66657L9.33464 9.07007V8.26307Z"/>
        <path d="M12 10.3333H11.3333C11.3333 10.2449 11.2982 10.1601 11.2357 10.0976C11.1732 10.0351 11.0884 10 11 10C10.9116 10 10.8268 10.0351 10.7643 10.0976C10.7018 10.1601 10.6667 10.2449 10.6667 10.3333H7.33333C7.24493 10.3333 7.16014 10.3685 7.09763 10.431C7.03512 10.4935 7 10.5783 7 10.6667C7 10.7551 7.03512 10.8399 7.09763 10.9024C7.16014 10.9649 7.24493 11 7.33333 11H10.6667C10.6667 11.0884 10.7018 11.1732 10.7643 11.2357C10.8268 11.2982 10.9116 11.3333 11 11.3333C11.0884 11.3333 11.1732 11.2982 11.2357 11.2357C11.2982 11.1732 11.3333 11.0884 11.3333 11H12C12.0884 11 12.1732 10.9649 12.2357 10.9024C12.2982 10.8399 12.3333 10.7551 12.3333 10.6667C12.3333 10.5783 12.2982 10.4935 12.2357 10.431C12.1732 10.3685 12.0884 10.3333 12 10.3333Z"/>
        <path d="M6.0013 13.3334H13.3347C13.4231 13.3334 13.5078 13.2982 13.5704 13.2357C13.6329 13.1732 13.668 13.0884 13.668 13C13.668 12.9116 13.6329 12.8268 13.5704 12.7643C13.5078 12.7018 13.4231 12.6667 13.3347 12.6667H6.0013C5.9129 12.6667 5.82811 12.7018 5.7656 12.7643C5.70309 12.8268 5.66797 12.9116 5.66797 13C5.66797 13.0884 5.70309 13.1732 5.7656 13.2357C5.82811 13.2982 5.9129 13.3334 6.0013 13.3334Z"/>
        <path d="M6.0013 14.3334H10.668C10.7564 14.3334 10.8412 14.2982 10.9037 14.2357C10.9662 14.1732 11.0013 14.0884 11.0013 14C11.0013 13.9116 10.9662 13.8268 10.9037 13.7643C10.8412 13.7018 10.7564 13.6667 10.668 13.6667H6.0013C5.9129 13.6667 5.82811 13.7018 5.7656 13.7643C5.70309 13.8268 5.66797 13.9116 5.66797 14C5.66797 14.0884 5.70309 14.1732 5.7656 14.2357C5.82811 14.2982 5.9129 14.3334 6.0013 14.3334Z"/>
        <path d="M12.0026 13.6667H11.6693C11.5809 13.6667 11.4961 13.7018 11.4336 13.7643C11.3711 13.8268 11.3359 13.9116 11.3359 14C11.3359 14.0884 11.3711 14.1732 11.4336 14.2357C11.4961 14.2982 11.5809 14.3334 11.6693 14.3334H12.0026C12.091 14.3334 12.1758 14.2982 12.2383 14.2357C12.3008 14.1732 12.3359 14.0884 12.3359 14C12.3359 13.9116 12.3008 13.8268 12.2383 13.7643C12.1758 13.7018 12.091 13.6667 12.0026 13.6667Z"/>
    </symbol>

    <symbol id="logout" viewBox="0 0 20 16">
        <path d="M0.992188 2.6681V13.3319C0.992188 14.8013 2.02266 16 3.28582 16H10.6949C11.958 16 12.9885 14.8013 12.9885 13.3319V11.6047C12.9885 11.3126 12.7854 11.0763 12.5342 11.0763C12.283 11.0763 12.0799 11.3126 12.0799 11.6047V13.3319C12.0799 14.2213 11.4557 14.9474 10.6912 14.9474H3.28582C2.52127 14.9474 1.89708 14.2213 1.89708 13.3319V2.6681C1.89708 1.77873 2.52127 1.05263 3.28582 1.05263H10.6949C11.4594 1.05263 12.0836 1.77873 12.0836 2.6681V4.39527C12.0836 4.68743 12.2867 4.92374 12.5379 4.92374C12.789 4.92374 12.9922 4.68743 12.9922 4.39527V2.6681C12.9922 1.19871 11.9617 0 10.6986 0H3.28582C2.02266 0 0.992188 1.19441 0.992188 2.6681Z"/>
        <path d="M15.712 12.1506C15.8099 12.2583 15.9363 12.3121 16.0669 12.3121C16.1974 12.3121 16.3238 12.2583 16.4217 12.1506L19.8441 8.38593C20.0399 8.17056 20.0399 7.82505 19.8441 7.60967L16.4217 3.84504C16.2259 3.62966 15.9119 3.62966 15.7161 3.84504C15.5203 4.06041 15.5203 4.40592 15.7161 4.6213L18.2859 7.44814H8.90798C8.6306 7.44814 8.40625 7.69493 8.40625 8.00005C8.40625 8.30517 8.6306 8.55196 8.90798 8.55196H18.2818L15.712 11.3788C15.5162 11.5897 15.5162 11.9397 15.712 12.1506Z"/>
    </symbol>

    <symbol id="home" viewBox="0 0 24 24">
        <path d="M23.3529 10.4388C23.3524 10.4383 23.3518 10.4377 23.3513 10.4372L13.5612 0.647461C13.1439 0.22998 12.5891 0 11.9989 0C11.4088 0 10.854 0.229797 10.4365 0.647278L0.651514 10.4321C0.648218 10.4354 0.644922 10.4388 0.641626 10.4421C-0.215307 11.304 -0.213843 12.7024 0.645838 13.5621C1.0386 13.955 1.55734 14.1826 2.11196 14.2064C2.13449 14.2086 2.15719 14.2097 2.18008 14.2097H2.57028V21.4144C2.57028 22.84 3.73025 24 5.15627 24H8.98647C9.37466 24 9.6896 23.6852 9.6896 23.2969V17.6484C9.6896 16.9979 10.2188 16.4687 10.8693 16.4687H13.1285C13.7791 16.4687 14.3083 16.9979 14.3083 17.6484V23.2969C14.3083 23.6852 14.623 24 15.0114 24H18.8416C20.2676 24 21.4276 22.84 21.4276 21.4144V14.2097H21.7894C22.3794 14.2097 22.9342 13.9799 23.3518 13.5624C24.2124 12.7013 24.2128 11.3005 23.3529 10.4388Z"/>
    </symbol>

    <symbol id="instagram" viewBox="0 0 32 32">
        <g>
            <path d="M31.9672 9.40809C31.8922 7.7078 31.6173 6.53888 31.2234 5.52598C30.817 4.45082 30.1919 3.48823 29.3729 2.68802C28.5727 1.87537 27.6038 1.2439 26.5411 0.843915C25.5223 0.450039 24.3595 0.175083 22.6592 0.100117C20.9462 0.0188025 20.4024 0 16.0578 0C11.7132 0 11.1694 0.0188025 9.46278 0.0937683C7.76249 0.168734 6.59356 0.443934 5.58091 0.837566C4.50551 1.2439 3.54292 1.86902 2.74271 2.68802C1.93005 3.48823 1.29883 4.45717 0.898602 5.51988C0.504727 6.53888 0.229771 7.70146 0.154805 9.40174C0.07349 11.1147 0.0546875 11.6585 0.0546875 16.0031C0.0546875 20.3477 0.07349 20.8915 0.148456 22.5982C0.223422 24.2984 0.498622 25.4674 0.892498 26.4803C1.29883 27.5554 1.93005 28.518 2.74271 29.3182C3.54292 30.1309 4.51186 30.7624 5.57456 31.1623C6.59356 31.5562 7.75614 31.8312 9.45667 31.9061C11.1631 31.9813 11.7071 31.9999 16.0517 31.9999C20.3963 31.9999 20.9401 31.9813 22.6467 31.9061C24.347 31.8312 25.516 31.5562 26.5286 31.1623C28.6792 30.3309 30.3795 28.6306 31.2109 26.4803C31.6046 25.4613 31.8798 24.2984 31.9547 22.5982C32.0297 20.8915 32.0485 20.3477 32.0485 16.0031C32.0485 11.6585 32.0421 11.1147 31.9672 9.40809ZM29.0855 22.4731C29.0166 24.0359 28.7541 24.8799 28.5353 25.4425C27.9976 26.8365 26.8912 27.943 25.4972 28.4807C24.9345 28.6995 24.0845 28.962 22.5278 29.0306C20.84 29.1058 20.3338 29.1243 16.0642 29.1243C11.7945 29.1243 11.282 29.1058 9.60025 29.0306C8.03745 28.962 7.19353 28.6995 6.63092 28.4807C5.93718 28.2243 5.30571 27.8179 4.79316 27.2866C4.26181 26.7677 3.85548 26.1426 3.59908 25.4488C3.38029 24.8862 3.11779 24.0359 3.04917 22.4795C2.97396 20.7917 2.9554 20.2852 2.9554 16.0156C2.9554 11.7459 2.97396 11.2334 3.04917 9.55192C3.11779 7.98911 3.38029 7.14519 3.59908 6.58258C3.85548 5.8886 4.26181 5.25737 4.79951 4.74458C5.31817 4.21323 5.94329 3.8069 6.63727 3.55074C7.19988 3.33195 8.05015 3.06945 9.6066 3.00059C11.2944 2.92562 11.8009 2.90682 16.0703 2.90682C20.3462 2.90682 20.8525 2.92562 22.5342 3.00059C24.097 3.06945 24.9409 3.33195 25.5035 3.55074C26.1972 3.8069 26.8287 4.21323 27.3413 4.74458C27.8726 5.26348 28.279 5.8886 28.5353 6.58258C28.7541 7.14519 29.0166 7.99521 29.0855 9.55192C29.1605 11.2397 29.1793 11.7459 29.1793 16.0156C29.1793 20.2852 29.1605 20.7853 29.0855 22.4731Z"/>
            <path d="M16.0602 7.78259C11.522 7.78259 7.83984 11.4645 7.83984 16.0029C7.83984 20.5414 11.522 24.2233 16.0602 24.2233C20.5987 24.2233 24.2806 20.5414 24.2806 16.0029C24.2806 11.4645 20.5987 7.78259 16.0602 7.78259ZM16.0602 21.3353C13.116 21.3353 10.7279 18.9474 10.7279 16.0029C10.7279 13.0585 13.116 10.6706 16.0602 10.6706C19.0046 10.6706 21.3925 13.0585 21.3925 16.0029C21.3925 18.9474 19.0046 21.3353 16.0602 21.3353Z"/>
            <path d="M26.5259 7.45789C26.5259 8.51767 25.6666 9.37697 24.6066 9.37697C23.5468 9.37697 22.6875 8.51767 22.6875 7.45789C22.6875 6.39787 23.5468 5.53882 24.6066 5.53882C25.6666 5.53882 26.5259 6.39787 26.5259 7.45789Z"/>
        </g>
    </symbol>

    <symbol id="whatsapp" viewBox="0 0 32 32">
        <path fill-rule="evenodd" clip-rule="evenodd"
              d="M27.2763 4.67812C24.2943 1.69257 20.3284 0.0476494 16.1034 0.0458984C7.39726 0.0458984 0.311771 7.1312 0.308269 15.8396C0.307102 18.6234 1.03433 21.3409 2.4166 23.7362L0.175781 31.9209L8.549 29.7244C10.8562 30.983 13.4536 31.6462 16.0969 31.647H16.1035C24.8087 31.647 31.8949 24.5611 31.8982 15.8523C31.9 11.6317 30.2586 7.66348 27.2763 4.67812ZM16.1034 28.9795H16.0979C13.7423 28.9785 11.432 28.3455 9.41611 27.1496L8.93693 26.8649L3.96813 28.1684L5.29438 23.3239L4.98213 22.8273C3.66795 20.737 2.97399 18.3211 2.97515 15.8406C2.97788 8.60238 8.86728 2.71356 16.1086 2.71356C19.6152 2.71473 22.9114 4.08202 25.39 6.5635C27.8685 9.04498 29.2327 12.3434 29.2316 15.8513C29.2284 23.0901 23.3394 28.9795 16.1034 28.9795ZM23.3044 19.1472C22.9099 18.9495 20.9694 17.995 20.6076 17.8631C20.2461 17.7314 19.9827 17.6659 19.7198 18.0608C19.4566 18.4557 18.7004 19.3448 18.4701 19.608C18.2397 19.8715 18.0097 19.9045 17.615 19.7069C17.2203 19.5094 15.9487 19.0925 14.4411 17.748C13.268 16.7015 12.476 15.4091 12.2456 15.0141C12.0157 14.6188 12.2437 14.4258 12.4188 14.2087C12.846 13.6782 13.2738 13.122 13.4053 12.8587C13.5371 12.5953 13.4711 12.3648 13.3723 12.1673C13.2738 11.9698 12.4845 10.0273 12.1558 9.23681C11.8351 8.46756 11.51 8.57145 11.2676 8.55939C11.0377 8.54791 10.7745 8.54557 10.5112 8.54557C10.2482 8.54557 9.82057 8.64421 9.45871 9.03953C9.09704 9.43466 8.0776 10.3893 8.0776 12.3319C8.0776 14.2745 9.49179 16.1511 9.68906 16.4145C9.88633 16.6779 12.4721 20.6643 16.431 22.3736C17.3726 22.7806 18.1076 23.0232 18.6809 23.2051C19.6265 23.5055 20.4866 23.463 21.1667 23.3615C21.9251 23.2481 23.5015 22.4066 23.8307 21.4849C24.1595 20.5629 24.1595 19.7728 24.0606 19.608C23.9622 19.4435 23.699 19.3448 23.3044 19.1472Z"/>
    </symbol>

    <symbol id="telegram" viewBox="0 0 32 32">
        <path d="M16 32C24.8227 32 32 24.8227 32 16C32 7.17733 24.8227 0 16 0C7.17733 0 0 7.17733 0 16C0 24.8227 7.17733 32 16 32ZM16 2C23.72 2 30 8.28 30 16C30 23.72 23.72 30 16 30C8.28 30 2 23.72 2 16C2 8.28 8.28 2 16 2Z"/>
        <path d="M10.528 18.8732L12.6186 17.9652L12.032 18.5532C11.844 18.7412 11.7386 18.9958 11.7386 19.2598V23.1731C11.7386 24.0691 12.8213 24.5038 13.4453 23.8798L15.544 21.7811L20.1173 24.0678C20.7093 24.3638 21.4253 24.0131 21.548 23.3518L24.1573 9.00384C24.2946 8.23184 23.5346 7.60785 22.808 7.89318L5.85329 14.5292C5.09329 14.8252 4.99195 15.8652 5.67995 16.3038L9.59195 18.7998C9.87195 18.9785 10.2253 19.0065 10.528 18.8732ZM21.8693 10.4105L19.82 21.6838L15.7933 19.6718C15.404 19.4772 14.94 19.5585 14.64 19.8598L13.7386 20.7611V19.6772L17.748 15.6678C18.5253 14.8905 17.6506 13.6078 16.6426 14.0438L10.22 16.8305L8.41462 15.6785L21.8693 10.4105Z"/>
    </symbol>

    <symbol id="notification" viewBox="0 0 24 24">
        <g>
            <path d="M11.9922 2.12002e-07C10.6115 2.12002e-07 9.49219 1.11928 9.49219 2.49998C9.49453 2.61994 9.50559 2.73961 9.52519 2.85797C9.56123 3.1057 9.77489 3.28856 10.0252 3.28598C10.0729 3.28594 10.1204 3.27919 10.1662 3.26597C11.361 2.91248 12.6325 2.91248 13.8272 3.26597C13.9693 3.30113 14.1195 3.27384 14.2402 3.19097C14.3634 3.10669 14.4457 2.97469 14.4672 2.82698C14.4852 2.71852 14.4952 2.60892 14.4972 2.499C14.4967 1.1183 13.3769 -0.000562288 11.9962 2.12002e-07C11.9948 2.12002e-07 11.9935 2.12002e-07 11.9922 2.12002e-07Z"
                  fill="#F57C00"/>
            <path d="M14.9922 20H8.9922C8.71606 20 8.49219 20.2239 8.49219 20.5C8.49219 22.433 10.0592 24 11.9922 24C13.9252 24 15.4922 22.433 15.4922 20.5C15.4922 20.2238 15.2684 20 14.9922 20Z"
                  fill="#FFA000"/>
            <path d="M21.3146 18.209C21.1566 17.8601 20.9576 17.47 20.7377 17.04C19.3845 14.7479 18.614 12.159 18.4937 9.50004C18.4937 5.53704 16.3937 2.62905 13.1457 2.09205C11.2503 1.78741 9.31836 2.35061 7.88365 3.62604C6.29548 5.01241 5.41437 7.03905 5.48365 9.14604C5.44226 11.9316 4.67281 14.6579 3.25166 17.054C3.03664 17.478 2.84066 17.864 2.68466 18.208C2.234 19.2019 2.67434 20.373 3.66828 20.8237C3.9275 20.9413 4.20903 21.0014 4.49366 21.0001H19.5096C20.6009 21.0033 21.4883 20.1213 21.4915 19.03C21.4924 18.7469 21.4324 18.467 21.3156 18.2091H21.3146V18.209Z"
                  fill="#FFC107"/>
            <path d="M5.32809 19C5.05195 19 4.82808 18.7761 4.82813 18.5C4.82813 18.4222 4.84627 18.3455 4.88109 18.276L5.04211 17.96C6.53564 15.3815 7.37766 12.4776 7.49512 9.50005C7.49512 6.96303 8.67412 4.00006 11.9951 4.00006C12.2713 4.00006 12.4951 4.22394 12.4951 4.50008C12.4951 4.77622 12.2713 5.00009 11.9951 5.00009C8.74711 5.00009 8.49511 8.44409 8.49511 9.50009C8.3835 12.6368 7.50342 15.698 5.93212 18.4151L5.77612 18.7241C5.69119 18.8935 5.5177 19.0004 5.32809 19Z"
                  fill="#FFD54F"/>
        </g>
    </symbol>

</svg>