<svg width="24" height="24" viewBox="0 0 24 24" fill="none" xmlns="http://www.w3.org/2000/svg">
    <path d="M11.9898 3.00122C11.6671 3.00122 11.3447 3.01857 11.0239 3.05314C10.7299 3.08318 10.4394 3.13244 10.1529 3.19221C10.0974 3.20381 10.0419 3.21605 9.98648 3.22885C8.29823 3.61323 6.75667 4.4764 5.54667 5.71487C5.43415 5.83021 5.32399 5.94896 5.21628 6.07109C1.94769 9.82355 2.33995 15.5152 6.09244 18.7838C9.68496 21.9131 15.0926 21.7049 18.4339 18.3087C18.5466 18.1933 18.6568 18.0746 18.7643 17.9524C20.2068 16.3097 21.0017 14.1979 21.0004 12.0118C21.0004 7.03534 16.9662 3.00118 11.9898 3.00122ZM5.94704 6.1654C5.99449 6.11614 6.04375 6.06899 6.09211 6.02123C6.14797 5.96627 6.20354 5.911 6.2606 5.85784C6.31076 5.81098 6.36242 5.76593 6.41378 5.72028C6.47175 5.66892 6.52942 5.61756 6.58889 5.568C6.64115 5.52385 6.69491 5.4815 6.74838 5.43885C6.80845 5.39079 6.86852 5.34273 6.93039 5.29648C6.98505 5.25533 7.04062 5.21538 7.09649 5.17634C7.15866 5.13189 7.22113 5.08623 7.28451 5.04478C7.34127 5.00634 7.39864 4.9691 7.45631 4.93215C7.52058 4.891 7.58516 4.85046 7.65034 4.81201C7.70902 4.77698 7.76807 4.74252 7.82754 4.70869C7.89403 4.67084 7.96079 4.6339 8.02788 4.59786C8.08795 4.56583 8.14802 4.53448 8.20809 4.50385C8.27657 4.46931 8.34565 4.43597 8.41503 4.40323C8.4751 4.3747 8.53758 4.34616 8.59945 4.31913C8.67003 4.2891 8.74152 4.25906 8.813 4.22903C8.87517 4.2035 8.93705 4.17857 8.99982 4.15454C9.07251 4.12691 9.14609 4.10108 9.21968 4.07525C9.28245 4.05332 9.34523 4.03139 9.4089 4.01067C9.48369 3.98664 9.55908 3.96441 9.63477 3.94249C9.69814 3.92417 9.76091 3.90525 9.82459 3.88813C9.84892 3.88182 9.87325 3.87671 9.89757 3.8704C9.00853 4.73366 8.34877 5.80501 7.97802 6.98747C7.26513 6.79945 6.575 6.53386 5.92 6.19544C5.92992 6.18492 5.93833 6.17441 5.94704 6.1654ZM5.51513 6.64897C6.23661 7.03988 7.00169 7.34436 7.79451 7.55604C7.40585 8.90747 7.20183 10.3053 7.18809 11.7114H3.58686C3.6523 9.85715 4.33039 8.07688 5.51513 6.64897ZM5.51513 17.3746C4.33046 15.9466 3.65238 14.1664 3.58686 12.3121H7.18809C7.20183 13.7183 7.40581 15.1161 7.79451 16.4675C7.00172 16.6793 6.23665 16.9837 5.51513 17.3746ZM9.82279 20.1366C9.76212 20.1213 9.69934 20.1015 9.63687 20.0832C9.56088 20.0609 9.48459 20.0387 9.4095 20.0144C9.34613 19.9939 9.28365 19.972 9.22118 19.9501C9.14729 19.9246 9.07341 19.8984 9.00042 19.8705C8.93795 19.8468 8.87638 19.8218 8.8145 19.7966C8.74272 19.7666 8.67093 19.7365 8.59975 19.7065C8.53848 19.6795 8.47751 19.6517 8.41684 19.623C8.34685 19.59 8.27717 19.5563 8.20659 19.5215C8.14652 19.4915 8.08645 19.4614 8.02638 19.4287C7.9585 19.3923 7.89122 19.3551 7.82394 19.3167C7.76387 19.2833 7.7068 19.2491 7.64883 19.2142C7.58276 19.1746 7.51788 19.1337 7.453 19.092C7.39594 19.0556 7.33887 19.0187 7.2827 18.9809C7.21873 18.9376 7.15535 18.8926 7.09258 18.8475C7.03762 18.8082 6.98265 18.7688 6.92859 18.7274C6.86642 18.6805 6.80544 18.6321 6.74477 18.5835C6.69161 18.5411 6.63875 18.4991 6.58679 18.4555C6.52672 18.4057 6.46875 18.3537 6.41048 18.3021C6.35942 18.2567 6.30806 18.212 6.2582 18.1657C6.20083 18.1122 6.14527 18.0567 6.0894 18.0017C6.04105 17.954 5.99179 17.9068 5.94433 17.8578C5.93562 17.8485 5.92721 17.8389 5.9185 17.8299C6.57346 17.4913 7.26359 17.2256 7.97652 17.0376C8.34734 18.22 9.00707 19.2913 9.89607 20.1546C9.87174 20.1483 9.84712 20.1432 9.82279 20.1366ZM11.6895 20.3979C10.4043 20.2153 9.27765 18.8739 8.56881 16.8931C9.59362 16.6636 10.6394 16.5405 11.6895 16.5258V20.3979ZM11.6895 15.9251C10.5755 15.9397 9.46631 16.072 8.38019 16.3197C8.00306 15.0167 7.80412 13.6686 7.7888 12.3121H11.6895V15.9251ZM11.6895 11.7114H7.7888C7.80408 10.355 8.00302 9.00685 8.38019 7.70381C9.46631 7.95149 10.5756 8.08379 11.6895 8.09847V11.7114ZM11.6895 7.49777C10.6394 7.48312 9.59362 7.36002 8.56881 7.13043C9.27765 5.14961 10.4043 3.80823 11.6895 3.62562V7.49777ZM18.4645 6.64897C19.6492 8.07692 20.3273 9.85719 20.3928 11.7114H16.7916C16.7778 10.3053 16.5739 8.90747 16.1852 7.55604C16.9779 7.34425 17.743 7.0398 18.4645 6.64897ZM14.1545 3.88662C14.2175 3.90224 14.2803 3.92207 14.3428 3.94039C14.4188 3.96261 14.4951 3.98484 14.5702 4.00917C14.6335 4.02959 14.696 4.05152 14.7585 4.07344C14.8324 4.09897 14.9063 4.1251 14.9792 4.15304C15.0417 4.17676 15.1033 4.20169 15.1652 4.22692C15.2369 4.25696 15.3087 4.28699 15.3799 4.31703C15.4412 4.34406 15.5022 4.37188 15.5628 4.40053C15.6328 4.43357 15.7025 4.46721 15.7731 4.50205C15.8331 4.53208 15.8932 4.56212 15.9533 4.59486C16.0212 4.6312 16.0884 4.66844 16.1557 4.70689C16.2158 4.74023 16.2729 4.77447 16.3308 4.80931C16.3969 4.84895 16.4618 4.8898 16.5267 4.93155C16.5837 4.96789 16.6408 5.00484 16.697 5.04268C16.7609 5.08593 16.824 5.13069 16.8868 5.17574C16.942 5.21508 16.997 5.25473 17.0514 5.29588C17.1132 5.34243 17.1739 5.39079 17.2349 5.43945C17.2878 5.4815 17.3409 5.52355 17.3929 5.5674C17.4529 5.61726 17.5109 5.66922 17.5692 5.72088C17.6202 5.76623 17.6716 5.81098 17.7215 5.85724C17.7788 5.9107 17.8344 5.96627 17.8903 6.02123C17.9386 6.06899 17.9879 6.11614 18.0353 6.1651C18.044 6.17441 18.0525 6.18402 18.0612 6.19303C17.4062 6.53161 16.7161 6.79731 16.0031 6.98536C15.6316 5.8028 14.971 4.73155 14.0812 3.8686C14.1055 3.87491 14.1301 3.88002 14.1545 3.88662ZM12.2902 3.62562C13.5754 3.80823 14.702 5.14961 15.4108 7.13043C14.386 7.3599 13.3403 7.48301 12.2902 7.49777V3.62562ZM12.2902 8.09847C13.4041 8.08383 14.5134 7.95152 15.5995 7.70381C15.9766 9.00685 16.1755 10.355 16.1909 11.7114H12.2902V8.09847ZM12.2902 12.3121H16.1909C16.1756 13.6686 15.9766 15.0167 15.5995 16.3197C14.5134 16.0721 13.4041 15.9397 12.2902 15.9251V12.3121ZM12.2902 20.3979V16.5258C13.3403 16.5404 14.386 16.6635 15.4108 16.8931C14.702 18.8739 13.5754 20.2153 12.2902 20.3979ZM18.0326 17.8581C17.9852 17.9071 17.9362 17.9543 17.8879 18.002C17.832 18.057 17.7761 18.1125 17.7188 18.166C17.6689 18.2126 17.6175 18.2561 17.5665 18.3027C17.5082 18.3543 17.4502 18.406 17.3908 18.4558C17.3382 18.4997 17.2847 18.542 17.2313 18.5847C17.1712 18.6327 17.1111 18.6808 17.0493 18.7271C16.9946 18.7682 16.939 18.8082 16.8832 18.8472C16.821 18.8917 16.7585 18.9373 16.6952 18.9788C16.6384 19.0172 16.581 19.0544 16.5234 19.0911C16.4591 19.1325 16.3943 19.1726 16.329 19.2112C16.269 19.2464 16.2116 19.2806 16.1524 19.3146C16.0859 19.3524 16.0191 19.3893 15.9518 19.4254C15.8917 19.4574 15.8316 19.4888 15.7716 19.5194C15.7031 19.5539 15.634 19.5873 15.5646 19.62C15.5046 19.6485 15.4421 19.6771 15.3802 19.7041C15.3096 19.7341 15.2381 19.7642 15.1667 19.7942C15.1045 19.8194 15.0426 19.8447 14.9801 19.8684C14.9069 19.8963 14.8333 19.9225 14.7594 19.948C14.6969 19.9699 14.6344 19.9918 14.5711 20.0123C14.496 20.0366 14.4209 20.0588 14.3443 20.0808C14.2815 20.0994 14.2184 20.118 14.1551 20.1351C14.1307 20.1414 14.1064 20.1465 14.0821 20.1528C14.9711 19.2896 15.6309 18.2182 16.0016 17.0358C16.7145 17.2238 17.4047 17.4894 18.0597 17.8278C18.0497 17.8386 18.0413 17.8491 18.0326 17.8581ZM18.4645 17.3746C17.743 16.9837 16.978 16.6792 16.1852 16.4675C16.5738 15.1161 16.7778 13.7183 16.7916 12.3121H20.3928C20.3274 14.1664 19.6493 15.9467 18.4645 17.3746Z" fill="#5B5B5B"/>
</svg>
